<svg width="20" height="16" viewBox="0 0 20 16" fill="none" xmlns="http://www.w3.org/2000/svg">
<path fill-rule="evenodd" clip-rule="evenodd" d="M3 2C2.73478 2 2.48043 2.10536 2.29289 2.29289C2.10536 2.48043 2 2.73478 2 3V13C2 13.2652 2.10536 13.5196 2.29289 13.7071C2.48043 13.8946 2.73478 14 3 14C3.26522 14 3.51957 13.8946 3.70711 13.7071C3.89464 13.5196 4 13.2652 4 13V8C4 7.20435 4.31607 6.44129 4.87868 5.87868C5.44129 5.31607 6.20435 5 7 5H14C14 4.73478 13.8946 4.48043 13.7071 4.29289C13.5196 4.10536 13.2652 4 13 4H9C8.73478 4 8.48043 3.89464 8.29289 3.70711L6.58579 2H3ZM7 7C6.73478 7 6.48043 7.10536 6.29289 7.29289C6.10536 7.48043 6 7.73478 6 8V13C6 13.3439 5.94094 13.6818 5.82843 14H17C17.2652 14 17.5196 13.8946 17.7071 13.7071C17.8946 13.5196 18 13.2652 18 13V8C18 7.73478 17.8946 7.48043 17.7071 7.29289C17.5196 7.10536 17.2652 7 17 7H7ZM16 5H17C17.7957 5 18.5587 5.31607 19.1213 5.87868C19.6839 6.44129 20 7.20435 20 8V13C20 13.7957 19.6839 14.5587 19.1213 15.1213C18.5587 15.6839 17.7957 16 17 16H3C2.20435 16 1.44129 15.6839 0.87868 15.1213C0.31607 14.5587 0 13.7956 0 13V3C0 2.20435 0.31607 1.44129 0.87868 0.87868C1.44129 0.31607 2.20435 0 3 0H7C7.26522 0 7.51957 0.105357 7.70711 0.292893L9.41421 2H13C13.7956 2 14.5587 2.31607 15.1213 2.87868C15.6839 3.44129 16 4.20435 16 5Z" fill="black"/>
</svg>
