<svg width="703" height="397" viewBox="0 0 703 397" fill="none" xmlns="http://www.w3.org/2000/svg">
<g clip-path="url(#clip0_5_115)">
<rect width="703" height="397" fill="#1F2937"/>
<path d="M227.627 35.7812V50H224.707V35.7812H227.627ZM232.002 35.7812V38.0762H220.4V35.7812H232.002ZM236.24 35V50H233.428V35H236.24ZM235.84 44.3457H235.068C235.075 43.61 235.173 42.9329 235.361 42.3145C235.55 41.6895 235.82 41.1491 236.172 40.6934C236.523 40.2311 236.943 39.873 237.432 39.6191C237.926 39.3652 238.473 39.2383 239.072 39.2383C239.593 39.2383 240.065 39.3132 240.488 39.4629C240.918 39.6061 241.286 39.8405 241.592 40.166C241.904 40.485 242.145 40.9049 242.314 41.4258C242.484 41.9466 242.568 42.5781 242.568 43.3203V50H239.736V43.3008C239.736 42.832 239.668 42.4642 239.531 42.1973C239.401 41.9238 239.209 41.7318 238.955 41.6211C238.708 41.5039 238.402 41.4453 238.037 41.4453C237.633 41.4453 237.288 41.5202 237.002 41.6699C236.722 41.8197 236.497 42.028 236.328 42.2949C236.159 42.5553 236.035 42.8613 235.957 43.2129C235.879 43.5645 235.84 43.9421 235.84 44.3457ZM249.57 50.1953C248.75 50.1953 248.014 50.0651 247.363 49.8047C246.712 49.5378 246.159 49.1699 245.703 48.7012C245.254 48.2324 244.909 47.6888 244.668 47.0703C244.427 46.4453 244.307 45.7812 244.307 45.0781V44.6875C244.307 43.8867 244.421 43.1543 244.648 42.4902C244.876 41.8262 245.202 41.25 245.625 40.7617C246.055 40.2734 246.576 39.8991 247.188 39.6387C247.799 39.3717 248.49 39.2383 249.258 39.2383C250.007 39.2383 250.671 39.362 251.25 39.6094C251.829 39.8568 252.314 40.2083 252.705 40.6641C253.102 41.1198 253.402 41.6667 253.604 42.3047C253.805 42.9362 253.906 43.6393 253.906 44.4141V45.5859H245.508V43.7109H251.143V43.4961C251.143 43.1055 251.071 42.7572 250.928 42.4512C250.791 42.1387 250.583 41.8913 250.303 41.709C250.023 41.5267 249.665 41.4355 249.229 41.4355C248.857 41.4355 248.538 41.5169 248.271 41.6797C248.005 41.8424 247.786 42.0703 247.617 42.3633C247.454 42.6562 247.331 43.0013 247.246 43.3984C247.168 43.7891 247.129 44.2188 247.129 44.6875V45.0781C247.129 45.5013 247.188 45.8919 247.305 46.25C247.428 46.6081 247.601 46.9173 247.822 47.1777C248.05 47.4382 248.324 47.64 248.643 47.7832C248.968 47.9264 249.336 47.998 249.746 47.998C250.254 47.998 250.726 47.9004 251.162 47.7051C251.605 47.5033 251.986 47.2005 252.305 46.7969L253.672 48.2812C253.451 48.6003 253.148 48.9062 252.764 49.1992C252.386 49.4922 251.93 49.7331 251.396 49.9219C250.863 50.1042 250.254 50.1953 249.57 50.1953ZM247.588 37.998L249.502 34.9902H252.559L249.873 37.998H247.588ZM255.059 44.8242V44.6191C255.059 43.8444 255.169 43.1315 255.391 42.4805C255.612 41.8229 255.934 41.2533 256.357 40.7715C256.781 40.2897 257.301 39.9154 257.92 39.6484C258.538 39.375 259.248 39.2383 260.049 39.2383C260.85 39.2383 261.562 39.375 262.188 39.6484C262.812 39.9154 263.337 40.2897 263.76 40.7715C264.189 41.2533 264.515 41.8229 264.736 42.4805C264.958 43.1315 265.068 43.8444 265.068 44.6191V44.8242C265.068 45.5924 264.958 46.3053 264.736 46.9629C264.515 47.6139 264.189 48.1836 263.76 48.6719C263.337 49.1536 262.816 49.528 262.197 49.7949C261.579 50.0618 260.869 50.1953 260.068 50.1953C259.268 50.1953 258.555 50.0618 257.93 49.7949C257.311 49.528 256.787 49.1536 256.357 48.6719C255.934 48.1836 255.612 47.6139 255.391 46.9629C255.169 46.3053 255.059 45.5924 255.059 44.8242ZM257.871 44.6191V44.8242C257.871 45.2669 257.91 45.6803 257.988 46.0645C258.066 46.4486 258.19 46.7871 258.359 47.0801C258.535 47.3665 258.763 47.5911 259.043 47.7539C259.323 47.9167 259.665 47.998 260.068 47.998C260.459 47.998 260.794 47.9167 261.074 47.7539C261.354 47.5911 261.579 47.3665 261.748 47.0801C261.917 46.7871 262.041 46.4486 262.119 46.0645C262.204 45.6803 262.246 45.2669 262.246 44.8242V44.6191C262.246 44.1895 262.204 43.7858 262.119 43.4082C262.041 43.0241 261.914 42.6855 261.738 42.3926C261.569 42.0931 261.344 41.8587 261.064 41.6895C260.785 41.5202 260.446 41.4355 260.049 41.4355C259.652 41.4355 259.313 41.5202 259.033 41.6895C258.76 41.8587 258.535 42.0931 258.359 42.3926C258.19 42.6855 258.066 43.0241 257.988 43.4082C257.91 43.7858 257.871 44.1895 257.871 44.6191ZM283.525 35.7812V50H280.596L274.883 40.4688V50H271.953V35.7812H274.883L280.605 45.3223V35.7812H283.525ZM291.602 47.6172V42.9102C291.602 42.5716 291.546 42.2819 291.436 42.041C291.325 41.7936 291.152 41.6016 290.918 41.4648C290.69 41.3281 290.394 41.2598 290.029 41.2598C289.717 41.2598 289.447 41.3151 289.219 41.4258C288.991 41.5299 288.815 41.6829 288.691 41.8848C288.568 42.0801 288.506 42.3112 288.506 42.5781H285.693C285.693 42.1289 285.798 41.7025 286.006 41.2988C286.214 40.8952 286.517 40.5404 286.914 40.2344C287.311 39.9219 287.783 39.6777 288.33 39.502C288.883 39.3262 289.502 39.2383 290.186 39.2383C291.006 39.2383 291.735 39.375 292.373 39.6484C293.011 39.9219 293.512 40.332 293.877 40.8789C294.248 41.4258 294.434 42.1094 294.434 42.9297V47.4512C294.434 48.0306 294.469 48.5059 294.541 48.877C294.613 49.2415 294.717 49.5605 294.854 49.834V50H292.012C291.875 49.7135 291.771 49.3555 291.699 48.9258C291.634 48.4896 291.602 48.0534 291.602 47.6172ZM291.973 43.5645L291.992 45.1562H290.42C290.049 45.1562 289.727 45.1986 289.453 45.2832C289.18 45.3678 288.955 45.4883 288.779 45.6445C288.604 45.7943 288.473 45.9701 288.389 46.1719C288.311 46.3737 288.271 46.5951 288.271 46.8359C288.271 47.0768 288.327 47.2949 288.438 47.4902C288.548 47.679 288.708 47.8288 288.916 47.9395C289.124 48.0436 289.368 48.0957 289.648 48.0957C290.072 48.0957 290.439 48.0111 290.752 47.8418C291.064 47.6725 291.305 47.4642 291.475 47.2168C291.65 46.9694 291.742 46.735 291.748 46.5137L292.49 47.7051C292.386 47.972 292.243 48.2487 292.061 48.5352C291.885 48.8216 291.66 49.0918 291.387 49.3457C291.113 49.5931 290.785 49.7982 290.4 49.9609C290.016 50.1172 289.561 50.1953 289.033 50.1953C288.363 50.1953 287.754 50.0618 287.207 49.7949C286.667 49.5215 286.237 49.1471 285.918 48.6719C285.605 48.1901 285.449 47.6432 285.449 47.0312C285.449 46.4779 285.553 45.9863 285.762 45.5566C285.97 45.127 286.276 44.7656 286.68 44.4727C287.09 44.1732 287.601 43.9486 288.213 43.7988C288.825 43.6426 289.535 43.5645 290.342 43.5645H291.973ZM299.57 39.4336V50H296.748V39.4336H299.57ZM296.572 36.6797C296.572 36.2695 296.715 35.931 297.002 35.6641C297.288 35.3971 297.673 35.2637 298.154 35.2637C298.63 35.2637 299.01 35.3971 299.297 35.6641C299.59 35.931 299.736 36.2695 299.736 36.6797C299.736 37.0898 299.59 37.4284 299.297 37.6953C299.01 37.9622 298.63 38.0957 298.154 38.0957C297.673 38.0957 297.288 37.9622 297.002 37.6953C296.715 37.4284 296.572 37.0898 296.572 36.6797ZM304.707 41.7383V50H301.895V39.4336H304.541L304.707 41.7383ZM307.891 39.3652L307.842 41.9727C307.705 41.9531 307.539 41.9368 307.344 41.9238C307.155 41.9043 306.982 41.8945 306.826 41.8945C306.429 41.8945 306.084 41.9466 305.791 42.0508C305.505 42.1484 305.264 42.2949 305.068 42.4902C304.88 42.6855 304.736 42.9232 304.639 43.2031C304.548 43.4831 304.495 43.8021 304.482 44.1602L303.916 43.9844C303.916 43.3008 303.984 42.6725 304.121 42.0996C304.258 41.5202 304.456 41.0156 304.717 40.5859C304.984 40.1562 305.309 39.8242 305.693 39.5898C306.077 39.3555 306.517 39.2383 307.012 39.2383C307.168 39.2383 307.327 39.2513 307.49 39.2773C307.653 39.2969 307.786 39.3262 307.891 39.3652ZM312.188 39.4336V50H309.365V39.4336H312.188ZM309.189 36.6797C309.189 36.2695 309.333 35.931 309.619 35.6641C309.906 35.3971 310.29 35.2637 310.771 35.2637C311.247 35.2637 311.628 35.3971 311.914 35.6641C312.207 35.931 312.354 36.2695 312.354 36.6797C312.354 37.0898 312.207 37.4284 311.914 37.6953C311.628 37.9622 311.247 38.0957 310.771 38.0957C310.29 38.0957 309.906 37.9622 309.619 37.6953C309.333 37.4284 309.189 37.0898 309.189 36.6797Z" fill="white"/>
<path d="M227.885 58.7676V58.9697C227.885 59.2939 227.841 59.585 227.753 59.8428C227.665 60.1006 227.541 60.3203 227.381 60.502C227.221 60.6816 227.029 60.8193 226.807 60.915C226.586 61.0107 226.341 61.0586 226.071 61.0586C225.804 61.0586 225.559 61.0107 225.336 60.915C225.115 60.8193 224.924 60.6816 224.762 60.502C224.6 60.3203 224.474 60.1006 224.384 59.8428C224.296 59.585 224.252 59.2939 224.252 58.9697V58.7676C224.252 58.4414 224.296 58.1504 224.384 57.8945C224.472 57.6367 224.596 57.417 224.756 57.2354C224.918 57.0537 225.109 56.915 225.33 56.8193C225.553 56.7236 225.798 56.6758 226.065 56.6758C226.335 56.6758 226.58 56.7236 226.801 56.8193C227.023 56.915 227.215 57.0537 227.375 57.2354C227.537 57.417 227.662 57.6367 227.75 57.8945C227.84 58.1504 227.885 58.4414 227.885 58.7676ZM226.997 58.9697V58.7617C226.997 58.5352 226.977 58.3359 226.936 58.1641C226.895 57.9922 226.834 57.8477 226.754 57.7305C226.674 57.6133 226.576 57.5254 226.461 57.4668C226.346 57.4062 226.214 57.376 226.065 57.376C225.917 57.376 225.785 57.4062 225.67 57.4668C225.557 57.5254 225.46 57.6133 225.38 57.7305C225.302 57.8477 225.242 57.9922 225.201 58.1641C225.16 58.3359 225.14 58.5352 225.14 58.7617V58.9697C225.14 59.1943 225.16 59.3936 225.201 59.5674C225.242 59.7393 225.303 59.8848 225.383 60.0039C225.463 60.1211 225.561 60.21 225.676 60.2705C225.791 60.3311 225.923 60.3613 226.071 60.3613C226.22 60.3613 226.352 60.3311 226.467 60.2705C226.582 60.21 226.679 60.1211 226.757 60.0039C226.835 59.8848 226.895 59.7393 226.936 59.5674C226.977 59.3936 226.997 59.1943 226.997 58.9697ZM229.309 58.4395V62.2188H228.465V57.8301H229.247L229.309 58.4395ZM231.315 59.3799V59.4414C231.315 59.6719 231.288 59.8857 231.233 60.083C231.181 60.2803 231.103 60.4521 230.999 60.5986C230.896 60.7432 230.767 60.8564 230.612 60.9385C230.46 61.0186 230.284 61.0586 230.085 61.0586C229.892 61.0586 229.724 61.0195 229.581 60.9414C229.438 60.8633 229.318 60.7539 229.221 60.6133C229.125 60.4707 229.048 60.3057 228.989 60.1182C228.931 59.9307 228.886 59.7295 228.854 59.5146V59.3535C228.886 59.123 228.931 58.9121 228.989 58.7207C229.048 58.5273 229.125 58.3604 229.221 58.2197C229.318 58.0771 229.438 57.9668 229.578 57.8887C229.721 57.8105 229.888 57.7715 230.079 57.7715C230.28 57.7715 230.457 57.8096 230.609 57.8857C230.764 57.9619 230.893 58.0713 230.996 58.2139C231.102 58.3564 231.181 58.5264 231.233 58.7236C231.288 58.9209 231.315 59.1396 231.315 59.3799ZM230.469 59.4414V59.3799C230.469 59.2451 230.457 59.1211 230.434 59.0078C230.412 58.8926 230.377 58.792 230.328 58.7061C230.281 58.6201 230.219 58.5537 230.141 58.5068C230.064 58.458 229.972 58.4336 229.862 58.4336C229.747 58.4336 229.648 58.4521 229.566 58.4893C229.486 58.5264 229.421 58.5801 229.37 58.6504C229.319 58.7207 229.281 58.8047 229.256 58.9023C229.23 59 229.215 59.1104 229.209 59.2334V59.6406C229.219 59.7852 229.246 59.915 229.291 60.0303C229.336 60.1436 229.405 60.2334 229.499 60.2998C229.593 60.3662 229.716 60.3994 229.868 60.3994C229.979 60.3994 230.073 60.375 230.149 60.3262C230.226 60.2754 230.287 60.2061 230.334 60.1182C230.383 60.0303 230.417 59.9287 230.437 59.8135C230.458 59.6982 230.469 59.5742 230.469 59.4414ZM233.299 61.0586C233.053 61.0586 232.832 61.0195 232.637 60.9414C232.441 60.8613 232.275 60.751 232.139 60.6104C232.004 60.4697 231.9 60.3066 231.828 60.1211C231.756 59.9336 231.72 59.7344 231.72 59.5234V59.4062C231.72 59.166 231.754 58.9463 231.822 58.7471C231.891 58.5479 231.988 58.375 232.115 58.2285C232.244 58.082 232.4 57.9697 232.584 57.8916C232.768 57.8115 232.975 57.7715 233.205 57.7715C233.43 57.7715 233.629 57.8086 233.803 57.8828C233.977 57.957 234.122 58.0625 234.239 58.1992C234.358 58.3359 234.448 58.5 234.509 58.6914C234.569 58.8809 234.6 59.0918 234.6 59.3242V59.6758H232.08V59.1133H233.771V59.0488C233.771 58.9316 233.749 58.8271 233.706 58.7354C233.665 58.6416 233.603 58.5674 233.519 58.5127C233.435 58.458 233.327 58.4307 233.196 58.4307C233.085 58.4307 232.989 58.4551 232.909 58.5039C232.829 58.5527 232.764 58.6211 232.713 58.709C232.664 58.7969 232.627 58.9004 232.602 59.0195C232.578 59.1367 232.566 59.2656 232.566 59.4062V59.5234C232.566 59.6504 232.584 59.7676 232.619 59.875C232.656 59.9824 232.708 60.0752 232.774 60.1533C232.843 60.2314 232.925 60.292 233.021 60.335C233.118 60.3779 233.229 60.3994 233.352 60.3994C233.504 60.3994 233.646 60.3701 233.776 60.3115C233.909 60.251 234.023 60.1602 234.119 60.0391L234.529 60.4844C234.463 60.5801 234.372 60.6719 234.257 60.7598C234.144 60.8477 234.007 60.9199 233.847 60.9766C233.687 61.0312 233.504 61.0586 233.299 61.0586ZM232.704 57.3994L233.278 56.4971H234.195L233.39 57.3994H232.704ZM235.924 58.5215V61H235.08V57.8301H235.874L235.924 58.5215ZM236.879 57.8096L236.864 58.5918C236.823 58.5859 236.773 58.5811 236.715 58.5771C236.658 58.5713 236.606 58.5684 236.56 58.5684C236.44 58.5684 236.337 58.584 236.249 58.6152C236.163 58.6445 236.091 58.6885 236.032 58.7471C235.976 58.8057 235.933 58.877 235.903 58.9609C235.876 59.0449 235.86 59.1406 235.856 59.248L235.687 59.1953C235.687 58.9902 235.707 58.8018 235.748 58.6299C235.789 58.4561 235.849 58.3047 235.927 58.1758C236.007 58.0469 236.104 57.9473 236.22 57.877C236.335 57.8066 236.467 57.7715 236.615 57.7715C236.662 57.7715 236.71 57.7754 236.759 57.7832C236.808 57.7891 236.848 57.7979 236.879 57.8096ZM238.889 60.2852V58.873C238.889 58.7715 238.872 58.6846 238.839 58.6123C238.806 58.5381 238.754 58.4805 238.684 58.4395C238.615 58.3984 238.526 58.3779 238.417 58.3779C238.323 58.3779 238.242 58.3945 238.174 58.4277C238.105 58.459 238.053 58.5049 238.016 58.5654C237.979 58.624 237.96 58.6934 237.96 58.7734H237.116C237.116 58.6387 237.147 58.5107 237.21 58.3896C237.272 58.2686 237.363 58.1621 237.482 58.0703C237.602 57.9766 237.743 57.9033 237.907 57.8506C238.073 57.7979 238.259 57.7715 238.464 57.7715C238.71 57.7715 238.929 57.8125 239.12 57.8945C239.312 57.9766 239.462 58.0996 239.571 58.2637C239.683 58.4277 239.738 58.6328 239.738 58.8789V60.2354C239.738 60.4092 239.749 60.5518 239.771 60.6631C239.792 60.7725 239.823 60.8682 239.864 60.9502V61H239.012C238.971 60.9141 238.939 60.8066 238.918 60.6777C238.898 60.5469 238.889 60.416 238.889 60.2852ZM239 59.0693L239.006 59.5469H238.534C238.423 59.5469 238.326 59.5596 238.244 59.585C238.162 59.6104 238.095 59.6465 238.042 59.6934C237.989 59.7383 237.95 59.791 237.925 59.8516C237.901 59.9121 237.89 59.9785 237.89 60.0508C237.89 60.123 237.906 60.1885 237.939 60.2471C237.973 60.3037 238.021 60.3486 238.083 60.3818C238.146 60.4131 238.219 60.4287 238.303 60.4287C238.43 60.4287 238.54 60.4033 238.634 60.3525C238.728 60.3018 238.8 60.2393 238.851 60.165C238.903 60.0908 238.931 60.0205 238.933 59.9541L239.155 60.3115C239.124 60.3916 239.081 60.4746 239.026 60.5605C238.974 60.6465 238.906 60.7275 238.824 60.8037C238.742 60.8779 238.644 60.9395 238.528 60.9883C238.413 61.0352 238.276 61.0586 238.118 61.0586C237.917 61.0586 237.734 61.0186 237.57 60.9385C237.408 60.8564 237.279 60.7441 237.184 60.6016C237.09 60.457 237.043 60.293 237.043 60.1094C237.043 59.9434 237.074 59.7959 237.137 59.667C237.199 59.5381 237.291 59.4297 237.412 59.3418C237.535 59.252 237.688 59.1846 237.872 59.1396C238.056 59.0928 238.269 59.0693 238.511 59.0693H239ZM241.941 57.8301V58.4277H240.096V57.8301H241.941ZM240.553 57.0479H241.396V60.0449C241.396 60.1367 241.408 60.207 241.432 60.2559C241.457 60.3047 241.494 60.3389 241.543 60.3584C241.592 60.376 241.653 60.3848 241.728 60.3848C241.78 60.3848 241.827 60.3828 241.868 60.3789C241.911 60.373 241.947 60.3672 241.977 60.3613L241.979 60.9824C241.907 61.0059 241.829 61.0244 241.745 61.0381C241.661 61.0518 241.568 61.0586 241.467 61.0586C241.281 61.0586 241.119 61.0283 240.98 60.9678C240.844 60.9053 240.738 60.8057 240.664 60.6689C240.59 60.5322 240.553 60.3525 240.553 60.1299V57.0479ZM243.881 61.0586C243.635 61.0586 243.414 61.0195 243.219 60.9414C243.023 60.8613 242.857 60.751 242.721 60.6104C242.586 60.4697 242.482 60.3066 242.41 60.1211C242.338 59.9336 242.302 59.7344 242.302 59.5234V59.4062C242.302 59.166 242.336 58.9463 242.404 58.7471C242.473 58.5479 242.57 58.375 242.697 58.2285C242.826 58.082 242.982 57.9697 243.166 57.8916C243.35 57.8115 243.557 57.7715 243.787 57.7715C244.012 57.7715 244.211 57.8086 244.385 57.8828C244.559 57.957 244.704 58.0625 244.821 58.1992C244.94 58.3359 245.03 58.5 245.091 58.6914C245.151 58.8809 245.182 59.0918 245.182 59.3242V59.6758H242.662V59.1133H244.353V59.0488C244.353 58.9316 244.331 58.8271 244.288 58.7354C244.247 58.6416 244.185 58.5674 244.101 58.5127C244.017 58.458 243.909 58.4307 243.778 58.4307C243.667 58.4307 243.571 58.4551 243.491 58.5039C243.411 58.5527 243.346 58.6211 243.295 58.709C243.246 58.7969 243.209 58.9004 243.184 59.0195C243.16 59.1367 243.148 59.2656 243.148 59.4062V59.5234C243.148 59.6504 243.166 59.7676 243.201 59.875C243.238 59.9824 243.29 60.0752 243.356 60.1533C243.425 60.2314 243.507 60.292 243.603 60.335C243.7 60.3779 243.811 60.3994 243.934 60.3994C244.086 60.3994 244.228 60.3701 244.358 60.3115C244.491 60.251 244.605 60.1602 244.701 60.0391L245.111 60.4844C245.045 60.5801 244.954 60.6719 244.839 60.7598C244.726 60.8477 244.589 60.9199 244.429 60.9766C244.269 61.0312 244.086 61.0586 243.881 61.0586ZM247.537 60.2412V57.8301H248.381V61H247.587L247.537 60.2412ZM247.631 59.5908L247.88 59.585C247.88 59.7959 247.855 59.9922 247.807 60.1738C247.758 60.3535 247.685 60.5098 247.587 60.6426C247.489 60.7734 247.366 60.876 247.218 60.9502C247.069 61.0225 246.895 61.0586 246.693 61.0586C246.539 61.0586 246.396 61.0371 246.266 60.9941C246.137 60.9492 246.025 60.8799 245.932 60.7861C245.84 60.6904 245.768 60.5684 245.715 60.4199C245.664 60.2695 245.639 60.0889 245.639 59.8779V57.8301H246.482V59.8838C246.482 59.9775 246.493 60.0566 246.515 60.1211C246.538 60.1855 246.57 60.2383 246.611 60.2793C246.652 60.3203 246.7 60.3496 246.755 60.3672C246.812 60.3848 246.874 60.3936 246.942 60.3936C247.116 60.3936 247.253 60.3584 247.353 60.2881C247.454 60.2178 247.525 60.1221 247.566 60.001C247.609 59.8779 247.631 59.7412 247.631 59.5908ZM249.869 58.5215V61H249.025V57.8301H249.819L249.869 58.5215ZM250.824 57.8096L250.81 58.5918C250.769 58.5859 250.719 58.5811 250.66 58.5771C250.604 58.5713 250.552 58.5684 250.505 58.5684C250.386 58.5684 250.282 58.584 250.194 58.6152C250.108 58.6445 250.036 58.6885 249.978 58.7471C249.921 58.8057 249.878 58.877 249.849 58.9609C249.821 59.0449 249.806 59.1406 249.802 59.248L249.632 59.1953C249.632 58.9902 249.652 58.8018 249.693 58.6299C249.734 58.4561 249.794 58.3047 249.872 58.1758C249.952 58.0469 250.05 57.9473 250.165 57.877C250.28 57.8066 250.412 57.7715 250.561 57.7715C250.607 57.7715 250.655 57.7754 250.704 57.7832C250.753 57.7891 250.793 57.7979 250.824 57.8096ZM254.504 57.4639L253.344 61H252.409L253.994 56.7344H254.589L254.504 57.4639ZM255.468 61L254.305 57.4639L254.211 56.7344H254.812L256.405 61H255.468ZM255.415 59.4121V60.1006H253.162V59.4121H255.415ZM257.639 57.8301V61H256.792V57.8301H257.639ZM256.739 57.0039C256.739 56.8809 256.782 56.7793 256.868 56.6992C256.954 56.6191 257.069 56.5791 257.214 56.5791C257.356 56.5791 257.471 56.6191 257.557 56.6992C257.645 56.7793 257.688 56.8809 257.688 57.0039C257.688 57.127 257.645 57.2285 257.557 57.3086C257.471 57.3887 257.356 57.4287 257.214 57.4287C257.069 57.4287 256.954 57.3887 256.868 57.3086C256.782 57.2285 256.739 57.127 256.739 57.0039ZM259.18 58.5215V61H258.336V57.8301H259.13L259.18 58.5215ZM260.135 57.8096L260.12 58.5918C260.079 58.5859 260.029 58.5811 259.971 58.5771C259.914 58.5713 259.862 58.5684 259.815 58.5684C259.696 58.5684 259.593 58.584 259.505 58.6152C259.419 58.6445 259.347 58.6885 259.288 58.7471C259.231 58.8057 259.188 58.877 259.159 58.9609C259.132 59.0449 259.116 59.1406 259.112 59.248L258.942 59.1953C258.942 58.9902 258.963 58.8018 259.004 58.6299C259.045 58.4561 259.104 58.3047 259.183 58.1758C259.263 58.0469 259.36 57.9473 259.476 57.877C259.591 57.8066 259.723 57.7715 259.871 57.7715C259.918 57.7715 259.966 57.7754 260.015 57.7832C260.063 57.7891 260.104 57.7979 260.135 57.8096ZM262.959 56.7344V61H262.08V56.7344H262.959ZM264.658 58.5566V59.2422H262.719V58.5566H264.658ZM264.863 56.7344V57.4229H262.719V56.7344H264.863ZM266.088 58.5215V61H265.244V57.8301H266.038L266.088 58.5215ZM267.043 57.8096L267.028 58.5918C266.987 58.5859 266.938 58.5811 266.879 58.5771C266.822 58.5713 266.771 58.5684 266.724 58.5684C266.604 58.5684 266.501 58.584 266.413 58.6152C266.327 58.6445 266.255 58.6885 266.196 58.7471C266.14 58.8057 266.097 58.877 266.067 58.9609C266.04 59.0449 266.024 59.1406 266.021 59.248L265.851 59.1953C265.851 58.9902 265.871 58.8018 265.912 58.6299C265.953 58.4561 266.013 58.3047 266.091 58.1758C266.171 58.0469 266.269 57.9473 266.384 57.877C266.499 57.8066 266.631 57.7715 266.779 57.7715C266.826 57.7715 266.874 57.7754 266.923 57.7832C266.972 57.7891 267.012 57.7979 267.043 57.8096ZM269.053 60.2852V58.873C269.053 58.7715 269.036 58.6846 269.003 58.6123C268.97 58.5381 268.918 58.4805 268.848 58.4395C268.779 58.3984 268.69 58.3779 268.581 58.3779C268.487 58.3779 268.406 58.3945 268.338 58.4277C268.27 58.459 268.217 58.5049 268.18 58.5654C268.143 58.624 268.124 58.6934 268.124 58.7734H267.28C267.28 58.6387 267.312 58.5107 267.374 58.3896C267.437 58.2686 267.527 58.1621 267.646 58.0703C267.766 57.9766 267.907 57.9033 268.071 57.8506C268.237 57.7979 268.423 57.7715 268.628 57.7715C268.874 57.7715 269.093 57.8125 269.284 57.8945C269.476 57.9766 269.626 58.0996 269.735 58.2637C269.847 58.4277 269.902 58.6328 269.902 58.8789V60.2354C269.902 60.4092 269.913 60.5518 269.935 60.6631C269.956 60.7725 269.987 60.8682 270.028 60.9502V61H269.176C269.135 60.9141 269.104 60.8066 269.082 60.6777C269.062 60.5469 269.053 60.416 269.053 60.2852ZM269.164 59.0693L269.17 59.5469H268.698C268.587 59.5469 268.49 59.5596 268.408 59.585C268.326 59.6104 268.259 59.6465 268.206 59.6934C268.153 59.7383 268.114 59.791 268.089 59.8516C268.065 59.9121 268.054 59.9785 268.054 60.0508C268.054 60.123 268.07 60.1885 268.104 60.2471C268.137 60.3037 268.185 60.3486 268.247 60.3818C268.31 60.4131 268.383 60.4287 268.467 60.4287C268.594 60.4287 268.704 60.4033 268.798 60.3525C268.892 60.3018 268.964 60.2393 269.015 60.165C269.067 60.0908 269.095 60.0205 269.097 59.9541L269.319 60.3115C269.288 60.3916 269.245 60.4746 269.19 60.5605C269.138 60.6465 269.07 60.7275 268.988 60.8037C268.906 60.8779 268.808 60.9395 268.692 60.9883C268.577 61.0352 268.44 61.0586 268.282 61.0586C268.081 61.0586 267.898 61.0186 267.734 60.9385C267.572 60.8564 267.443 60.7441 267.348 60.6016C267.254 60.457 267.207 60.293 267.207 60.1094C267.207 59.9434 267.238 59.7959 267.301 59.667C267.363 59.5381 267.455 59.4297 267.576 59.3418C267.699 59.252 267.853 59.1846 268.036 59.1396C268.22 59.0928 268.433 59.0693 268.675 59.0693H269.164ZM271.379 58.5068V61H270.535V57.8301H271.326L271.379 58.5068ZM271.256 59.3037H271.027C271.027 59.0693 271.058 58.8584 271.118 58.6709C271.179 58.4814 271.264 58.3203 271.373 58.1875C271.482 58.0527 271.612 57.9502 271.763 57.8799C271.915 57.8076 272.085 57.7715 272.272 57.7715C272.421 57.7715 272.557 57.793 272.68 57.8359C272.803 57.8789 272.908 57.9473 272.996 58.041C273.086 58.1348 273.154 58.2588 273.201 58.4131C273.25 58.5674 273.274 58.7559 273.274 58.9785V61H272.425V58.9756C272.425 58.835 272.405 58.7256 272.366 58.6475C272.327 58.5693 272.27 58.5146 272.193 58.4834C272.119 58.4502 272.027 58.4336 271.918 58.4336C271.805 58.4336 271.706 58.4561 271.622 58.501C271.54 58.5459 271.472 58.6084 271.417 58.6885C271.364 58.7666 271.324 58.8584 271.297 58.9639C271.27 59.0693 271.256 59.1826 271.256 59.3037ZM275.226 60.3994C275.329 60.3994 275.421 60.3799 275.501 60.3408C275.581 60.2998 275.644 60.2432 275.688 60.1709C275.735 60.0967 275.76 60.0098 275.762 59.9102H276.556C276.554 60.1328 276.494 60.3311 276.377 60.5049C276.26 60.6768 276.103 60.8125 275.905 60.9121C275.708 61.0098 275.487 61.0586 275.243 61.0586C274.997 61.0586 274.782 61.0176 274.599 60.9355C274.417 60.8535 274.266 60.7402 274.145 60.5957C274.023 60.4492 273.933 60.2793 273.872 60.0859C273.812 59.8906 273.781 59.6816 273.781 59.459V59.374C273.781 59.1494 273.812 58.9404 273.872 58.7471C273.933 58.5518 274.023 58.3818 274.145 58.2373C274.266 58.0908 274.417 57.9766 274.599 57.8945C274.78 57.8125 274.993 57.7715 275.237 57.7715C275.497 57.7715 275.725 57.8213 275.92 57.9209C276.117 58.0205 276.271 58.1631 276.383 58.3486C276.496 58.5322 276.554 58.75 276.556 59.002H275.762C275.76 58.8965 275.737 58.8008 275.694 58.7148C275.653 58.6289 275.593 58.5605 275.513 58.5098C275.435 58.457 275.338 58.4307 275.223 58.4307C275.1 58.4307 274.999 58.457 274.921 58.5098C274.843 58.5605 274.782 58.6309 274.739 58.7207C274.696 58.8086 274.666 58.9092 274.648 59.0225C274.633 59.1338 274.625 59.251 274.625 59.374V59.459C274.625 59.582 274.633 59.7002 274.648 59.8135C274.664 59.9268 274.693 60.0273 274.736 60.1152C274.781 60.2031 274.843 60.2725 274.921 60.3232C274.999 60.374 275.101 60.3994 275.226 60.3994ZM278.504 61.0586C278.258 61.0586 278.037 61.0195 277.842 60.9414C277.646 60.8613 277.48 60.751 277.344 60.6104C277.209 60.4697 277.105 60.3066 277.033 60.1211C276.961 59.9336 276.925 59.7344 276.925 59.5234V59.4062C276.925 59.166 276.959 58.9463 277.027 58.7471C277.096 58.5479 277.193 58.375 277.32 58.2285C277.449 58.082 277.605 57.9697 277.789 57.8916C277.973 57.8115 278.18 57.7715 278.41 57.7715C278.635 57.7715 278.834 57.8086 279.008 57.8828C279.182 57.957 279.327 58.0625 279.444 58.1992C279.563 58.3359 279.653 58.5 279.714 58.6914C279.774 58.8809 279.805 59.0918 279.805 59.3242V59.6758H277.285V59.1133H278.976V59.0488C278.976 58.9316 278.954 58.8271 278.911 58.7354C278.87 58.6416 278.808 58.5674 278.724 58.5127C278.64 58.458 278.532 58.4307 278.401 58.4307C278.29 58.4307 278.194 58.4551 278.114 58.5039C278.034 58.5527 277.969 58.6211 277.918 58.709C277.869 58.7969 277.832 58.9004 277.807 59.0195C277.783 59.1367 277.771 59.2656 277.771 59.4062V59.5234C277.771 59.6504 277.789 59.7676 277.824 59.875C277.861 59.9824 277.913 60.0752 277.979 60.1533C278.048 60.2314 278.13 60.292 278.226 60.335C278.323 60.3779 278.434 60.3994 278.557 60.3994C278.709 60.3994 278.851 60.3701 278.981 60.3115C279.114 60.251 279.229 60.1602 279.324 60.0391L279.734 60.4844C279.668 60.5801 279.577 60.6719 279.462 60.7598C279.349 60.8477 279.212 60.9199 279.052 60.9766C278.892 61.0312 278.709 61.0586 278.504 61.0586Z" fill="white" fill-opacity="0.5"/>
<rect x="601" y="30" width="76" height="25" rx="4" fill="#7338DB"/>
<path d="M623.81 46H621.748V40.1818H623.827C624.413 40.1818 624.916 40.2983 625.339 40.5312C625.761 40.7623 626.086 41.0947 626.313 41.5284C626.542 41.9621 626.657 42.4811 626.657 43.0852C626.657 43.6913 626.542 44.2121 626.313 44.6477C626.086 45.0833 625.759 45.4176 625.333 45.6506C624.909 45.8835 624.401 46 623.81 46ZM622.978 44.946H623.759C624.123 44.946 624.429 44.8816 624.677 44.7528C624.927 44.6222 625.114 44.4205 625.239 44.1477C625.366 43.8731 625.43 43.5189 625.43 43.0852C625.43 42.6553 625.366 42.304 625.239 42.0312C625.114 41.7585 624.928 41.5578 624.68 41.429C624.432 41.3002 624.126 41.2358 623.762 41.2358H622.978V44.946ZM629.534 46.0852C629.085 46.0852 628.699 45.9943 628.375 45.8125C628.053 45.6288 627.805 45.3693 627.631 45.0341C627.456 44.697 627.369 44.2983 627.369 43.8381C627.369 43.3892 627.456 42.9953 627.631 42.6562C627.805 42.3172 628.05 42.053 628.366 41.8636C628.685 41.6742 629.058 41.5795 629.486 41.5795C629.774 41.5795 630.042 41.6259 630.29 41.7188C630.54 41.8097 630.758 41.947 630.943 42.1307C631.131 42.3144 631.277 42.5455 631.381 42.8239C631.485 43.1004 631.537 43.4242 631.537 43.7955V44.1278H627.852V43.3778H630.398C630.398 43.2036 630.36 43.0492 630.284 42.9148C630.208 42.7803 630.103 42.6752 629.969 42.5994C629.836 42.5218 629.682 42.483 629.506 42.483C629.322 42.483 629.159 42.5256 629.017 42.6108C628.877 42.6941 628.767 42.8068 628.688 42.9489C628.608 43.089 628.567 43.2453 628.565 43.4176V44.1307C628.565 44.3466 628.605 44.5331 628.685 44.6903C628.766 44.8475 628.881 44.9688 629.028 45.054C629.176 45.1392 629.351 45.1818 629.554 45.1818C629.688 45.1818 629.812 45.1629 629.923 45.125C630.035 45.0871 630.131 45.0303 630.21 44.9545C630.29 44.8788 630.35 44.786 630.392 44.6761L631.511 44.75C631.455 45.0189 631.338 45.2538 631.162 45.4545C630.988 45.6534 630.762 45.8087 630.486 45.9205C630.211 46.0303 629.894 46.0852 629.534 46.0852ZM629.023 41.0739L629.625 39.7812H630.744L629.878 41.0739H629.023ZM634.298 46.0852C633.851 46.0852 633.467 45.9905 633.145 45.8011C632.825 45.6098 632.579 45.3447 632.406 45.0057C632.236 44.6667 632.151 44.2765 632.151 43.8352C632.151 43.3883 632.237 42.9962 632.409 42.6591C632.583 42.3201 632.83 42.0559 633.151 41.8665C633.471 41.6752 633.851 41.5795 634.293 41.5795C634.673 41.5795 635.007 41.6487 635.293 41.7869C635.579 41.9252 635.805 42.1193 635.972 42.3693C636.138 42.6193 636.23 42.9129 636.247 43.25H635.105C635.073 43.0322 634.988 42.857 634.849 42.7244C634.713 42.59 634.534 42.5227 634.312 42.5227C634.125 42.5227 633.961 42.5739 633.821 42.6761C633.683 42.7765 633.575 42.9233 633.497 43.1165C633.42 43.3097 633.381 43.5436 633.381 43.8182C633.381 44.0966 633.419 44.3333 633.494 44.5284C633.572 44.7235 633.681 44.8722 633.821 44.9744C633.961 45.0767 634.125 45.1278 634.312 45.1278C634.451 45.1278 634.575 45.0994 634.685 45.0426C634.796 44.9858 634.888 44.9034 634.96 44.7955C635.034 44.6856 635.082 44.554 635.105 44.4006H636.247C636.228 44.7339 636.137 45.0275 635.974 45.2812C635.813 45.5331 635.591 45.7301 635.307 45.8722C635.023 46.0142 634.687 46.0852 634.298 46.0852ZM638.994 46.0852C638.552 46.0852 638.171 45.9915 637.849 45.804C637.529 45.6146 637.281 45.3513 637.107 45.0142C636.933 44.6752 636.846 44.2822 636.846 43.8352C636.846 43.3845 636.933 42.9905 637.107 42.6534C637.281 42.3144 637.529 42.0511 637.849 41.8636C638.171 41.6742 638.552 41.5795 638.994 41.5795C639.435 41.5795 639.816 41.6742 640.136 41.8636C640.458 42.0511 640.706 42.3144 640.88 42.6534C641.054 42.9905 641.141 43.3845 641.141 43.8352C641.141 44.2822 641.054 44.6752 640.88 45.0142C640.706 45.3513 640.458 45.6146 640.136 45.804C639.816 45.9915 639.435 46.0852 638.994 46.0852ZM638.999 45.1477C639.2 45.1477 639.368 45.0909 639.502 44.9773C639.637 44.8617 639.738 44.7045 639.806 44.5057C639.876 44.3068 639.911 44.0805 639.911 43.8267C639.911 43.5729 639.876 43.3466 639.806 43.1477C639.738 42.9489 639.637 42.7917 639.502 42.6761C639.368 42.5606 639.2 42.5028 638.999 42.5028C638.797 42.5028 638.626 42.5606 638.488 42.6761C638.352 42.7917 638.248 42.9489 638.178 43.1477C638.11 43.3466 638.076 43.5729 638.076 43.8267C638.076 44.0805 638.11 44.3068 638.178 44.5057C638.248 44.7045 638.352 44.8617 638.488 44.9773C638.626 45.0909 638.797 45.1477 638.999 45.1477ZM643.138 43.4773V46H641.928V41.6364H643.082V42.4062H643.133C643.229 42.1525 643.391 41.9517 643.619 41.804C643.846 41.6544 644.121 41.5795 644.445 41.5795C644.748 41.5795 645.013 41.6458 645.238 41.7784C645.463 41.911 645.638 42.1004 645.763 42.3466C645.888 42.5909 645.951 42.8826 645.951 43.2216V46H644.741V43.4375C644.743 43.1705 644.674 42.9621 644.536 42.8125C644.398 42.661 644.208 42.5852 643.965 42.5852C643.802 42.5852 643.658 42.6203 643.533 42.6903C643.41 42.7604 643.314 42.8627 643.244 42.9972C643.175 43.1297 643.14 43.2898 643.138 43.4773ZM648.115 43.4773V46H646.905V41.6364H648.058V42.4062H648.109C648.206 42.1525 648.368 41.9517 648.595 41.804C648.822 41.6544 649.098 41.5795 649.422 41.5795C649.725 41.5795 649.989 41.6458 650.214 41.7784C650.44 41.911 650.615 42.1004 650.74 42.3466C650.865 42.5909 650.928 42.8826 650.928 43.2216V46H649.717V43.4375C649.719 43.1705 649.651 42.9621 649.513 42.8125C649.375 42.661 649.184 42.5852 648.942 42.5852C648.779 42.5852 648.635 42.6203 648.51 42.6903C648.387 42.7604 648.29 42.8627 648.22 42.9972C648.152 43.1297 648.117 43.2898 648.115 43.4773ZM653.87 46.0852C653.421 46.0852 653.035 45.9943 652.711 45.8125C652.389 45.6288 652.141 45.3693 651.967 45.0341C651.792 44.697 651.705 44.2983 651.705 43.8381C651.705 43.3892 651.792 42.9953 651.967 42.6562C652.141 42.3172 652.386 42.053 652.702 41.8636C653.021 41.6742 653.394 41.5795 653.822 41.5795C654.11 41.5795 654.378 41.6259 654.626 41.7188C654.876 41.8097 655.094 41.947 655.279 42.1307C655.467 42.3144 655.612 42.5455 655.717 42.8239C655.821 43.1004 655.873 43.4242 655.873 43.7955V44.1278H652.188V43.3778H654.734C654.734 43.2036 654.696 43.0492 654.62 42.9148C654.544 42.7803 654.439 42.6752 654.305 42.5994C654.172 42.5218 654.018 42.483 653.842 42.483C653.658 42.483 653.495 42.5256 653.353 42.6108C653.213 42.6941 653.103 42.8068 653.023 42.9489C652.944 43.089 652.903 43.2453 652.901 43.4176V44.1307C652.901 44.3466 652.941 44.5331 653.021 44.6903C653.102 44.8475 653.217 44.9688 653.364 45.054C653.512 45.1392 653.687 45.1818 653.89 45.1818C654.024 45.1818 654.147 45.1629 654.259 45.125C654.371 45.0871 654.467 45.0303 654.546 44.9545C654.626 44.8788 654.686 44.786 654.728 44.6761L655.847 44.75C655.79 45.0189 655.674 45.2538 655.498 45.4545C655.324 45.6534 655.098 45.8087 654.822 45.9205C654.547 46.0303 654.23 46.0852 653.87 46.0852ZM657.596 41.6364L658.397 43.1619L659.218 41.6364H660.46L659.195 43.8182L660.494 46H659.258L658.397 44.4915L657.55 46H656.3L657.596 43.8182L656.346 41.6364H657.596ZM661.178 46V41.6364H662.388V46H661.178ZM661.786 41.0739C661.606 41.0739 661.452 41.0142 661.323 40.8949C661.196 40.7737 661.133 40.6288 661.133 40.4602C661.133 40.2936 661.196 40.1506 661.323 40.0312C661.452 39.91 661.606 39.8494 661.786 39.8494C661.966 39.8494 662.12 39.91 662.246 40.0312C662.375 40.1506 662.44 40.2936 662.44 40.4602C662.44 40.6288 662.375 40.7737 662.246 40.8949C662.12 41.0142 661.966 41.0739 661.786 41.0739ZM665.33 46.0852C664.888 46.0852 664.507 45.9915 664.185 45.804C663.865 45.6146 663.617 45.3513 663.443 45.0142C663.269 44.6752 663.182 44.2822 663.182 43.8352C663.182 43.3845 663.269 42.9905 663.443 42.6534C663.617 42.3144 663.865 42.0511 664.185 41.8636C664.507 41.6742 664.888 41.5795 665.33 41.5795C665.771 41.5795 666.152 41.6742 666.472 41.8636C666.794 42.0511 667.042 42.3144 667.216 42.6534C667.39 42.9905 667.477 43.3845 667.477 43.8352C667.477 44.2822 667.39 44.6752 667.216 45.0142C667.042 45.3513 666.794 45.6146 666.472 45.804C666.152 45.9915 665.771 46.0852 665.33 46.0852ZM665.335 45.1477C665.536 45.1477 665.704 45.0909 665.838 44.9773C665.973 44.8617 666.074 44.7045 666.142 44.5057C666.212 44.3068 666.247 44.0805 666.247 43.8267C666.247 43.5729 666.212 43.3466 666.142 43.1477C666.074 42.9489 665.973 42.7917 665.838 42.6761C665.704 42.5606 665.536 42.5028 665.335 42.5028C665.133 42.5028 664.962 42.5606 664.824 42.6761C664.688 42.7917 664.584 42.9489 664.514 43.1477C664.446 43.3466 664.412 43.5729 664.412 43.8267C664.412 44.0805 664.446 44.3068 664.514 44.5057C664.584 44.7045 664.688 44.8617 664.824 44.9773C664.962 45.0909 665.133 45.1477 665.335 45.1477ZM669.474 43.4773V46H668.264V41.6364H669.418V42.4062H669.469C669.565 42.1525 669.727 41.9517 669.955 41.804C670.182 41.6544 670.457 41.5795 670.781 41.5795C671.084 41.5795 671.348 41.6458 671.574 41.7784C671.799 41.911 671.974 42.1004 672.099 42.3466C672.224 42.5909 672.287 42.8826 672.287 43.2216V46H671.077V43.4375C671.079 43.1705 671.01 42.9621 670.872 42.8125C670.734 42.661 670.544 42.5852 670.301 42.5852C670.138 42.5852 669.994 42.6203 669.869 42.6903C669.746 42.7604 669.65 42.8627 669.58 42.9972C669.511 43.1297 669.476 43.2898 669.474 43.4773Z" fill="white"/>
<rect x="220" y="124" width="136" height="50" rx="6" fill="#353F4E"/>
<rect x="372" y="124" width="147" height="50" rx="6" fill="#353F4E"/>
<rect x="535" y="124" width="142" height="50" rx="6" fill="#353F4E"/>
<rect x="220" y="199" width="299" height="50" rx="6" fill="#353F4E"/>
<rect x="220" y="265" width="299" height="50" rx="6" fill="#353F4E"/>
<rect x="220" y="331" width="299" height="50" rx="6" fill="#353F4E"/>
<rect x="530" y="199" width="142" height="182" rx="6" fill="#353F4E"/>
<path fill-rule="evenodd" clip-rule="evenodd" d="M609.73 39.1132C610.591 38.6108 611.593 38.4081 612.581 38.5368C613.569 38.6654 614.486 39.1182 615.189 39.8241C615.892 40.53 616.341 41.4492 616.465 42.4376C616.5 42.7116 616.305 42.9616 616.031 42.9961C615.757 43.0306 615.507 42.8364 615.473 42.5625C615.376 41.7937 615.027 41.0788 614.48 40.5297C613.934 39.9806 613.22 39.6285 612.452 39.5284C611.684 39.4283 610.904 39.586 610.235 39.9767C609.793 40.2348 609.415 40.585 609.127 41H610.5C610.776 41 611 41.2239 611 41.5C611 41.7762 610.776 42 610.5 42H608C607.724 42 607.5 41.7762 607.5 41.5V39C607.5 38.7239 607.724 38.5 608 38.5C608.276 38.5 608.5 38.7239 608.5 39V40.1701C608.84 39.749 609.256 39.3899 609.73 39.1132ZM607.968 43.004C608.242 42.9693 608.492 43.1633 608.527 43.4372C608.624 44.2057 608.974 44.9203 609.52 45.469C610.067 46.0177 610.78 46.3696 611.549 46.4697C612.317 46.5697 613.096 46.4122 613.765 46.0218C614.207 45.7641 614.584 45.4145 614.873 45H613.5C613.224 45 613 44.7762 613 44.5C613 44.2239 613.224 44 613.5 44H616C616.276 44 616.5 44.2239 616.5 44.5V47C616.5 47.2762 616.276 47.5 616 47.5C615.724 47.5 615.5 47.2762 615.5 47V45.8293C615.159 46.2502 614.743 46.609 614.269 46.8855C613.409 47.3874 612.407 47.5899 611.419 47.4613C610.432 47.3327 609.515 46.8802 608.812 46.1748C608.109 45.4694 607.66 44.5508 607.535 43.5628C607.5 43.2889 607.694 43.0387 607.968 43.004Z" fill="white"/>
<line x1="775" y1="97.5" x2="195" y2="97.5" stroke="#333C4B"/>
<g clip-path="url(#clip1_5_115)">
<mask id="mask0_5_115" style="mask-type:luminance" maskUnits="userSpaceOnUse" x="14" y="14" width="77" height="28">
<path d="M90.5153 14.6177H14.645V41.5717H90.5153V14.6177Z" fill="white"/>
</mask>
<g mask="url(#mask0_5_115)">
<path d="M30.6177 25.2662L27.9556 14.6177L24.2952 25.2662L14.645 28.2611L24.2952 31.5887L27.9556 41.5717L30.6177 31.5887L41.2662 28.2611L30.6177 25.2662Z" fill="white" stroke="white" stroke-width="0.665529"/>
<path d="M52.274 33.8582C51.0938 33.8582 50.1488 33.6364 49.4389 33.1927C48.7289 32.7401 48.374 32.0525 48.374 31.1296C48.374 30.6415 48.4583 30.2688 48.6269 30.0115C48.7955 29.7541 49.044 29.6255 49.3723 29.6255C49.6119 29.6255 49.8071 29.6876 49.958 29.8118C50.1089 29.9361 50.1843 30.0958 50.1843 30.291C50.1843 30.4685 50.171 30.6238 50.1443 30.7569C50.1443 30.7923 50.1355 30.8545 50.1177 30.9432C50.1089 31.0319 50.1044 31.1251 50.1044 31.2227C50.1044 31.6221 50.3041 31.9194 50.7034 32.1146C51.1115 32.3098 51.6795 32.4074 52.4071 32.4074C53.1614 32.4074 53.7515 32.2743 54.1774 32.0081C54.6034 31.733 54.8163 31.3514 54.8163 30.8634C54.8163 30.5617 54.7187 30.3043 54.5235 30.0913C54.3283 29.8695 54.0843 29.6876 53.7914 29.5456C53.4986 29.3947 53.086 29.2128 52.5535 28.9999C51.8702 28.7337 51.3112 28.4808 50.8764 28.2412C50.4505 28.0016 50.0822 27.6777 49.7716 27.2695C49.4699 26.8524 49.3191 26.3378 49.3191 25.7255C49.3191 25.0866 49.4877 24.5187 49.8249 24.0217C50.171 23.5248 50.6634 23.1388 51.3024 22.8637C51.9501 22.5886 52.7088 22.4511 53.5785 22.4511C54.2262 22.4511 54.8208 22.5487 55.3621 22.7439C55.9034 22.9303 56.3337 23.2186 56.6532 23.6091C56.9815 23.9996 57.1457 24.4787 57.1457 25.0466C57.1457 25.6057 57.0614 26.0272 56.8928 26.3111C56.7242 26.5951 56.4757 26.7371 56.1474 26.7371C55.9167 26.7371 55.7215 26.6661 55.5617 26.5241C55.4109 26.3821 55.3355 26.2135 55.3355 26.0183C55.3355 25.8497 55.3488 25.6944 55.3754 25.5524C55.402 25.2862 55.4153 25.1176 55.4153 25.0466C55.4153 24.6739 55.2334 24.39 54.8696 24.1948C54.5057 23.9996 54.0532 23.9019 53.5119 23.9019C52.7487 23.9019 52.1631 24.0439 51.7549 24.3279C51.3556 24.6029 51.1559 24.9934 51.1559 25.4992C51.1559 25.8364 51.258 26.1248 51.4621 26.3644C51.675 26.604 51.9368 26.8036 52.2474 26.9634C52.558 27.1231 52.9928 27.3139 53.5518 27.5357C54.2262 27.8108 54.7676 28.0593 55.1757 28.2811C55.5839 28.5029 55.93 28.8047 56.214 29.1862C56.5068 29.5678 56.6532 30.0381 56.6532 30.5971C56.6532 31.6442 56.2539 32.4518 55.4553 33.0197C54.6655 33.5787 53.6051 33.8582 52.274 33.8582ZM59.4681 26.6705C59.0954 26.6705 58.8158 26.5862 58.6295 26.4176C58.4431 26.2401 58.35 25.9961 58.35 25.6855C58.35 25.3749 58.4698 25.1176 58.7094 24.9135C58.9579 24.7006 59.264 24.5941 59.6278 24.5941C59.9562 24.5941 60.2224 24.6739 60.4264 24.8337C60.6305 24.9934 60.7326 25.2197 60.7326 25.5125C60.7326 25.8674 60.6172 26.1514 60.3865 26.3644C60.1558 26.5685 59.8497 26.6705 59.4681 26.6705ZM59.3616 33.8183C58.7848 33.8183 58.3633 33.6142 58.0971 33.206C57.8398 32.7978 57.7111 32.2565 57.7111 31.5821C57.7111 31.1828 57.7599 30.6725 57.8575 30.0514C57.964 29.4214 58.0971 28.8357 58.2568 28.2944C58.3367 28.0104 58.4431 27.8152 58.5762 27.7087C58.7094 27.6023 58.9223 27.549 59.2152 27.549C59.6677 27.549 59.894 27.6999 59.894 28.0016C59.894 28.2234 59.8097 28.7381 59.6411 29.5456C59.4281 30.5217 59.3216 31.1828 59.3216 31.5289C59.3216 31.7951 59.3572 31.9992 59.4281 32.1412C59.4991 32.2831 59.6189 32.3541 59.7875 32.3541C59.9472 32.3541 60.1469 32.2432 60.3865 32.0214C60.6261 31.7996 60.9455 31.449 61.3449 30.9698C61.4513 30.8456 61.5711 30.7835 61.7042 30.7835C61.8196 30.7835 61.9084 30.8367 61.9704 30.9432C62.0415 31.0497 62.0769 31.1961 62.0769 31.3825C62.0769 31.7374 61.9927 32.0125 61.824 32.2077C60.9455 33.2814 60.1247 33.8183 59.3616 33.8183ZM67.8151 30.8101C67.9304 30.8101 68.0192 30.8678 68.0813 30.9832C68.1523 31.0896 68.1878 31.2272 68.1878 31.3958C68.1878 31.5999 68.1567 31.7596 68.0946 31.875C68.0325 31.9903 67.9349 32.0924 67.8017 32.1811C67.0386 32.6958 66.4795 33.0774 66.1246 33.3258L65.2727 33.8982C64.9355 35.735 64.4919 37.177 63.9417 38.2241C63.4004 39.2801 62.7083 39.8081 61.8652 39.8081C61.4127 39.8081 61.0444 39.6661 60.7604 39.3821C60.4765 39.1071 60.3345 38.7432 60.3345 38.2907C60.3345 37.6606 60.583 36.9818 61.0799 36.2541C61.5769 35.5354 62.5086 34.648 63.8751 33.592L63.955 33.0729C63.8041 33.3125 63.6045 33.4989 63.356 33.632C63.1164 33.7562 62.8768 33.8183 62.6372 33.8183C62.087 33.8183 61.6478 33.6186 61.3195 33.2193C60.9912 32.82 60.827 32.2964 60.827 31.6487C60.827 30.9388 60.9912 30.2688 61.3195 29.6388C61.6478 28.9999 62.0827 28.4896 62.6239 28.1081C63.1741 27.7176 63.7553 27.5224 64.3676 27.5224C64.5628 27.5224 64.6915 27.5623 64.7536 27.6422C64.8246 27.7132 64.8823 27.8463 64.9267 28.0415C65.0952 28.006 65.2905 27.9883 65.5123 27.9883C65.7341 27.9883 65.8895 28.0237 65.9782 28.0948C66.0758 28.1568 66.1246 28.2856 66.1246 28.4808C66.1246 28.5872 66.1202 28.6716 66.1113 28.7337C66.0758 29.0087 65.9649 29.7053 65.7785 30.8234C65.7431 31.0364 65.7031 31.2715 65.6587 31.5289C65.6233 31.7773 65.5833 32.0435 65.5389 32.3275C66.2222 31.7951 66.8789 31.3248 67.5089 30.9166C67.6242 30.8456 67.7263 30.8101 67.8151 30.8101ZM63.1164 32.4739C63.3205 32.4739 63.5157 32.3497 63.7021 32.1012C63.8884 31.8528 64.0215 31.4978 64.1014 31.0364L64.5273 28.7603C64.1635 28.7691 63.8263 28.9112 63.5157 29.1862C63.2051 29.4524 62.9567 29.8074 62.7703 30.2511C62.584 30.6948 62.4908 31.165 62.4908 31.662C62.4908 31.9371 62.5441 32.1412 62.6506 32.2743C62.7659 32.4074 62.9212 32.4739 63.1164 32.4739ZM62.0116 38.5169C62.2335 38.5169 62.482 38.2507 62.757 37.7183C63.041 37.1859 63.3116 36.3385 63.569 35.176C62.8857 35.7616 62.3932 36.2896 62.0915 36.7599C61.7898 37.2303 61.6389 37.6429 61.6389 37.9978C61.6389 38.1487 61.6656 38.2729 61.7188 38.3705C61.7809 38.4682 61.8785 38.5169 62.0116 38.5169ZM68.1715 33.8183C67.8342 33.8183 67.5946 33.6408 67.4527 33.2859C67.3196 32.931 67.253 32.363 67.253 31.5821C67.253 30.4286 67.4171 29.3326 67.7455 28.2944C67.8254 28.0371 67.954 27.8507 68.1315 27.7354C68.3179 27.6111 68.5752 27.549 68.9035 27.549C69.081 27.549 69.2052 27.5712 69.2762 27.6156C69.3472 27.66 69.3827 27.7442 69.3827 27.8685C69.3827 28.0104 69.3162 28.3299 69.1831 28.8268C69.0943 29.1818 69.0233 29.4924 68.9701 29.7586C68.9168 30.0248 68.8725 30.3531 68.837 30.7436C69.1298 29.9804 69.4581 29.3593 69.822 28.8801C70.1857 28.4009 70.5407 28.0593 70.8868 27.8552C71.2417 27.651 71.5656 27.549 71.8585 27.549C72.4352 27.549 72.7237 27.8374 72.7237 28.4142C72.7237 28.7603 72.626 29.3859 72.4308 30.291C72.2622 31.063 72.1779 31.5733 72.1779 31.8217C72.1779 32.1766 72.3066 32.3541 72.5639 32.3541C72.7414 32.3541 72.9499 32.2477 73.1895 32.0347C73.438 31.8129 73.7663 31.4579 74.1745 30.9698C74.281 30.8456 74.4008 30.7835 74.5339 30.7835C74.6492 30.7835 74.738 30.8367 74.8001 30.9432C74.8711 31.0497 74.9066 31.1961 74.9066 31.3825C74.9066 31.7374 74.8223 32.0125 74.6537 32.2077C74.2721 32.6781 73.8595 33.0641 73.4158 33.3657C72.981 33.6674 72.4841 33.8183 71.925 33.8183C71.4725 33.8183 71.1308 33.6897 70.9001 33.4323C70.6694 33.1661 70.554 32.7845 70.554 32.2876C70.554 32.0391 70.6161 31.5954 70.7404 30.9565C70.8557 30.3975 70.9134 30.0115 70.9134 29.7985C70.9134 29.6566 70.8646 29.5855 70.767 29.5855C70.6516 29.5855 70.4875 29.7364 70.2745 30.0381C70.0704 30.3309 69.8574 30.7214 69.6356 31.2094C69.4226 31.6975 69.2496 32.2122 69.1165 32.7535C69.0189 33.1705 68.9035 33.4545 68.7704 33.6053C68.6462 33.7473 68.4465 33.8183 68.1715 33.8183ZM78.8744 30.7835C78.9898 30.7835 79.0785 30.8367 79.1406 30.9432C79.2116 31.0497 79.2471 31.1961 79.2471 31.3825C79.2471 31.7374 79.1628 32.0125 78.9942 32.2077C78.6126 32.6781 78.1956 33.0641 77.743 33.3657C77.2993 33.6674 76.7935 33.8183 76.2256 33.8183C75.4447 33.8183 74.8635 33.4634 74.4819 32.7535C74.1092 32.0435 73.9229 31.1251 73.9229 29.9982C73.9229 28.9156 74.0604 27.6821 74.3355 26.2978C74.6194 24.9135 75.0321 23.7244 75.5734 22.7306C76.1235 21.7368 76.7757 21.2398 77.5301 21.2398C77.956 21.2398 78.2888 21.4395 78.5283 21.8388C78.7768 22.2292 78.901 22.7927 78.901 23.5292C78.901 24.5852 78.6082 25.8098 78.0225 27.2029C77.4369 28.5961 76.6426 29.976 75.64 31.3425C75.702 31.7064 75.8041 31.9681 75.9461 32.1279C76.0881 32.2787 76.2744 32.3541 76.5051 32.3541C76.8689 32.3541 77.1884 32.2521 77.4635 32.048C77.7386 31.835 78.0891 31.4756 78.515 30.9698C78.6215 30.8456 78.7413 30.7835 78.8744 30.7835ZM77.2372 22.5576C77.0331 22.5576 76.8024 22.9258 76.5451 23.6623C76.2877 24.3989 76.0614 25.3128 75.8662 26.4043C75.671 27.4958 75.5645 28.5429 75.5468 29.5456C76.1768 28.5074 76.6782 27.4692 77.0509 26.4309C77.4236 25.3839 77.6099 24.4299 77.6099 23.5692C77.6099 22.8948 77.4857 22.5576 77.2372 22.5576ZM79.6784 33.8183C79.1283 33.8183 78.689 33.6186 78.3607 33.2193C78.0323 32.82 77.8682 32.2964 77.8682 31.6487C77.8682 30.9388 78.0323 30.2688 78.3607 29.6388C78.689 28.9999 79.1238 28.4896 79.6651 28.1081C80.2153 27.7176 80.7965 27.5224 81.4089 27.5224C81.6039 27.5224 81.733 27.5623 81.7949 27.6422C81.8661 27.7132 81.9233 27.8463 81.9679 28.0415C82.1543 28.006 82.3493 27.9883 82.5536 27.9883C82.9882 27.9883 83.2058 28.1435 83.2058 28.4541C83.2058 28.6405 83.1393 29.0842 83.0062 29.7852C82.8018 30.8057 82.7 31.5156 82.7 31.9149C82.7 32.048 82.7313 32.1545 82.7932 32.2343C82.8644 32.3142 82.9529 32.3541 83.0594 32.3541C83.2278 32.3541 83.4321 32.2477 83.6717 32.0347C83.9113 31.8129 84.2354 31.4579 84.6434 30.9698C84.7498 30.8456 84.8696 30.7835 85.0027 30.7835C85.1179 30.7835 85.2071 30.8367 85.269 30.9432C85.3402 31.0497 85.3754 31.1961 85.3754 31.3825C85.3754 31.7374 85.2909 32.0125 85.1225 32.2077C84.7585 32.6603 84.3725 33.0418 83.9645 33.3524C83.5565 33.663 83.1612 33.8183 82.7799 33.8183C82.487 33.8183 82.2162 33.7207 81.9679 33.5255C81.7283 33.3214 81.5467 33.0463 81.4222 32.7002C80.9607 33.4456 80.3794 33.8183 79.6784 33.8183ZM80.1576 32.4739C80.3528 32.4739 80.5392 32.3586 80.7167 32.1279C80.8941 31.8971 81.0228 31.591 81.1027 31.2094L81.5952 28.7603C81.2225 28.7691 80.8764 28.9112 80.5569 29.1862C80.2463 29.4524 79.9979 29.8074 79.8116 30.2511C79.6252 30.6948 79.532 31.165 79.532 31.662C79.532 31.9371 79.5853 32.1412 79.6918 32.2743C79.8071 32.4074 79.9624 32.4739 80.1576 32.4739ZM86.9288 33.8183C86.0416 33.8183 85.3941 33.4767 84.9854 32.7934C84.5861 32.1101 84.3865 31.1207 84.3865 29.8251C84.3865 28.6804 84.5289 27.4381 84.8124 26.0982C85.0966 24.7493 85.5092 23.6046 86.0503 22.664C86.6007 21.7145 87.2529 21.2398 88.0069 21.2398C88.4156 21.2398 88.7437 21.4173 88.9919 21.7722C89.2408 22.1183 89.3646 22.5709 89.3646 23.1299C89.3646 23.8575 89.2275 24.5808 88.952 25.2995C88.6771 26.0183 88.2199 26.7726 87.581 27.5623C88.0163 27.5978 88.3929 27.7442 88.7124 28.0016C89.0412 28.2589 89.2894 28.5917 89.4578 28.9999C89.6355 29.408 89.724 29.8518 89.724 30.3309C89.724 30.9965 89.5909 31.5954 89.3247 32.1279C89.0678 32.6603 88.7257 33.0774 88.2998 33.3791C87.8738 33.6719 87.4173 33.8183 86.9288 33.8183ZM86.1435 28.4675C86.7291 27.3938 87.195 26.4487 87.5411 25.6323C87.8965 24.807 88.0735 24.075 88.0735 23.4361C88.0735 23.1521 88.0382 22.9347 87.967 22.7838C87.9051 22.633 87.8166 22.5576 87.7008 22.5576C87.5238 22.5576 87.3281 22.8238 87.1151 23.3562C86.9115 23.8798 86.7205 24.5941 86.5428 25.4992C86.3657 26.4043 86.2326 27.3938 86.1435 28.4675ZM86.982 32.3808C87.2842 32.3808 87.5371 32.2166 87.7407 31.8883C87.9537 31.56 88.0602 31.0808 88.0602 30.4507C88.0602 29.9627 87.9717 29.5944 87.794 29.346C87.6169 29.0975 87.404 28.9733 87.1551 28.9733C86.8449 28.9733 86.5827 29.133 86.3697 29.4524C86.1568 29.7719 86.0503 30.2378 86.0503 30.85C86.0503 31.3825 86.1395 31.7729 86.3165 32.0214C86.4942 32.261 86.7158 32.3808 86.982 32.3808Z" fill="white"/>
</g>
</g>
<rect x="169.048" y="22.6041" width="14.6416" height="0.665529" fill="#919294"/>
<rect x="169.048" y="25.2662" width="14.6416" height="0.665529" fill="#919294"/>
<path d="M169.048 28.5939H183.689V29.2594H169.048V28.5939Z" fill="#919294"/>
<rect x="169.048" y="31.9214" width="14.6416" height="0.665529" fill="#919294"/>
<rect x="15" y="65" width="173.703" height="25" rx="5.32423" fill="#7338DB"/>
<path fill-rule="evenodd" clip-rule="evenodd" d="M49.6074 71.5103C49.975 71.5103 50.273 71.8082 50.273 72.1758V76.8345H54.9317C55.2992 76.8345 55.5972 77.1325 55.5972 77.5C55.5972 77.8676 55.2992 78.1655 54.9317 78.1655H50.273V82.8242C50.273 83.1918 49.975 83.4898 49.6074 83.4898C49.2399 83.4898 48.9419 83.1918 48.9419 82.8242V78.1655H44.2832C43.9156 78.1655 43.6177 77.8676 43.6177 77.5C43.6177 77.1325 43.9156 76.8345 44.2832 76.8345H48.9419V72.1758C48.9419 71.8082 49.2399 71.5103 49.6074 71.5103Z" fill="white"/>
<path d="M76.7839 73.9296V81.5H75.7752L71.964 75.661V81.5H70.9605V73.9296H71.964L75.7908 79.7842V73.9296H76.7839ZM78.1617 78.7495V78.6299C78.1617 78.2243 78.2207 77.8483 78.3385 77.5016C78.4564 77.1515 78.6262 76.8482 78.8481 76.5917C79.0699 76.3318 79.3385 76.1307 79.654 75.9886C79.9694 75.843 80.323 75.7702 80.7147 75.7702C81.1098 75.7702 81.4651 75.843 81.7805 75.9886C82.0994 76.1307 82.3698 76.3318 82.5917 76.5917C82.817 76.8482 82.9885 77.1515 83.1064 77.5016C83.2243 77.8483 83.2832 78.2243 83.2832 78.6299V78.7495C83.2832 79.1551 83.2243 79.5311 83.1064 79.8778C82.9885 80.2244 82.817 80.5277 82.5917 80.7877C82.3698 81.0442 82.1012 81.2452 81.7857 81.3908C81.4738 81.5329 81.1202 81.604 80.7251 81.604C80.3299 81.604 79.9746 81.5329 79.6592 81.3908C79.3437 81.2452 79.0734 81.0442 78.8481 80.7877C78.6262 80.5277 78.4564 80.2244 78.3385 79.8778C78.2207 79.5311 78.1617 79.1551 78.1617 78.7495ZM79.1236 78.6299V78.7495C79.1236 79.0303 79.1566 79.2954 79.2224 79.545C79.2883 79.7911 79.3871 80.0095 79.5188 80.2001C79.654 80.3908 79.8221 80.5416 80.0231 80.6525C80.2242 80.7599 80.4581 80.8137 80.7251 80.8137C80.9885 80.8137 81.219 80.7599 81.4166 80.6525C81.6176 80.5416 81.784 80.3908 81.9157 80.2001C82.0474 80.0095 82.1462 79.7911 82.2121 79.545C82.2814 79.2954 82.3161 79.0303 82.3161 78.7495V78.6299C82.3161 78.3526 82.2814 78.0909 82.2121 77.8448C82.1462 77.5952 82.0457 77.3751 81.9105 77.1845C81.7788 76.9903 81.6124 76.8378 81.4114 76.7269C81.2138 76.616 80.9816 76.5605 80.7147 76.5605C80.4512 76.5605 80.219 76.616 80.0179 76.7269C79.8203 76.8378 79.654 76.9903 79.5188 77.1845C79.3871 77.3751 79.2883 77.5952 79.2224 77.8448C79.1566 78.0909 79.1236 78.3526 79.1236 78.6299ZM87.9315 80.2001V75.8742H88.8986V81.5H87.9783L87.9315 80.2001ZM88.1135 79.0147L88.5138 79.0043C88.5138 79.3786 88.474 79.7253 88.3942 80.0442C88.318 80.3596 88.1932 80.6334 88.0199 80.8657C87.8466 81.0979 87.6195 81.2799 87.3387 81.4116C87.058 81.5399 86.7165 81.604 86.3145 81.604C86.0406 81.604 85.7893 81.5641 85.5605 81.4844C85.3352 81.4047 85.1411 81.2816 84.9782 81.1152C84.8153 80.9489 84.6888 80.7322 84.5986 80.4653C84.512 80.1984 84.4687 79.8778 84.4687 79.5034V75.8742H85.4305V79.5138C85.4305 79.7669 85.4583 79.9766 85.5137 80.1429C85.5727 80.3059 85.6507 80.4358 85.7477 80.5329C85.8482 80.6265 85.9592 80.6924 86.0805 80.7305C86.2053 80.7686 86.3335 80.7877 86.4652 80.7877C86.8743 80.7877 87.1984 80.7097 87.4375 80.5537C87.6767 80.3943 87.8483 80.1811 87.9523 79.9142C88.0597 79.6438 88.1135 79.344 88.1135 79.0147ZM92.0754 80.6317L93.6145 75.8742H94.5972L92.5746 81.5H91.9299L92.0754 80.6317ZM90.7912 75.8742L92.377 80.6577L92.4862 81.5H91.8415L89.8033 75.8742H90.7912ZM97.7844 81.604C97.3927 81.604 97.0374 81.5381 96.7185 81.4064C96.4031 81.2712 96.131 81.0823 95.9022 80.8397C95.6769 80.597 95.5036 80.3093 95.3823 79.9766C95.261 79.6438 95.2003 79.2798 95.2003 78.8847V78.6663C95.2003 78.2088 95.2679 77.8015 95.4031 77.4444C95.5383 77.0839 95.722 76.7789 95.9542 76.5293C96.1865 76.2798 96.4499 76.0908 96.7445 75.9626C97.0392 75.8343 97.3442 75.7702 97.6596 75.7702C98.0617 75.7702 98.4084 75.8395 98.6995 75.9782C98.9942 76.1168 99.2351 76.311 99.4223 76.5605C99.6094 76.8066 99.7481 77.0978 99.8382 77.434C99.9283 77.7668 99.9734 78.1308 99.9734 78.5259V78.9575H95.7722V78.1724H99.0115V78.0996C98.9976 77.85 98.9456 77.6073 98.8555 77.3716C98.7689 77.1359 98.6302 76.9418 98.4396 76.7893C98.2489 76.6368 97.9889 76.5605 97.6596 76.5605C97.4413 76.5605 97.2402 76.6073 97.0565 76.7009C96.8728 76.791 96.7151 76.9262 96.5834 77.1065C96.4516 77.2867 96.3494 77.5068 96.2766 77.7668C96.2038 78.0268 96.1674 78.3266 96.1674 78.6663V78.8847C96.1674 79.1516 96.2038 79.4029 96.2766 79.6386C96.3529 79.8708 96.462 80.0754 96.6042 80.2521C96.7497 80.4289 96.9248 80.5676 97.1293 80.6681C97.3373 80.7686 97.573 80.8189 97.8364 80.8189C98.1761 80.8189 98.4638 80.7495 98.6995 80.6109C98.9352 80.4722 99.1415 80.2868 99.3183 80.0546L99.9006 80.5173C99.7793 80.701 99.625 80.8761 99.4379 81.0424C99.2507 81.2088 99.0202 81.344 98.7463 81.448C98.476 81.552 98.1553 81.604 97.7844 81.604ZM102.142 73.5137V81.5H101.174V73.5137H102.142ZM104.731 73.5137V81.5H103.764V73.5137H104.731ZM108.61 81.604C108.218 81.604 107.863 81.5381 107.544 81.4064C107.228 81.2712 106.956 81.0823 106.727 80.8397C106.502 80.597 106.329 80.3093 106.208 79.9766C106.086 79.6438 106.026 79.2798 106.026 78.8847V78.6663C106.026 78.2088 106.093 77.8015 106.228 77.4444C106.364 77.0839 106.547 76.7789 106.779 76.5293C107.012 76.2798 107.275 76.0908 107.57 75.9626C107.864 75.8343 108.169 75.7702 108.485 75.7702C108.887 75.7702 109.234 75.8395 109.525 75.9782C109.819 76.1168 110.06 76.311 110.248 76.5605C110.435 76.8066 110.573 77.0978 110.663 77.434C110.754 77.7668 110.799 78.1308 110.799 78.5259V78.9575H106.597V78.1724H109.837V78.0996C109.823 77.85 109.771 77.6073 109.681 77.3716C109.594 77.1359 109.455 76.9418 109.265 76.7893C109.074 76.6368 108.814 76.5605 108.485 76.5605C108.267 76.5605 108.065 76.6073 107.882 76.7009C107.698 76.791 107.54 76.9262 107.409 77.1065C107.277 77.2867 107.175 77.5068 107.102 77.7668C107.029 78.0268 106.993 78.3266 106.993 78.6663V78.8847C106.993 79.1516 107.029 79.4029 107.102 79.6386C107.178 79.8708 107.287 80.0754 107.429 80.2521C107.575 80.4289 107.75 80.5676 107.955 80.6681C108.163 80.7686 108.398 80.8189 108.662 80.8189C109.001 80.8189 109.289 80.7495 109.525 80.6109C109.76 80.4722 109.967 80.2868 110.144 80.0546L110.726 80.5173C110.605 80.701 110.45 80.8761 110.263 81.0424C110.076 81.2088 109.845 81.344 109.572 81.448C109.301 81.552 108.981 81.604 108.61 81.604ZM116.918 75.8742V76.6125H113.877V75.8742H116.918ZM114.906 74.5067H115.868V80.1065C115.868 80.2972 115.898 80.441 115.956 80.5381C116.015 80.6352 116.092 80.6993 116.185 80.7305C116.279 80.7617 116.379 80.7773 116.487 80.7773C116.567 80.7773 116.65 80.7703 116.736 80.7565C116.827 80.7391 116.894 80.7253 116.939 80.7149L116.944 81.5C116.868 81.5243 116.768 81.5468 116.643 81.5676C116.521 81.5919 116.374 81.604 116.201 81.604C115.965 81.604 115.749 81.5572 115.551 81.4636C115.353 81.37 115.196 81.214 115.078 80.9957C114.963 80.7738 114.906 80.4757 114.906 80.1013V74.5067ZM119.009 76.7581V81.5H118.047V75.8742H118.983L119.009 76.7581ZM120.766 75.843L120.761 76.7373C120.681 76.72 120.605 76.7096 120.532 76.7061C120.463 76.6992 120.383 76.6957 120.293 76.6957C120.071 76.6957 119.875 76.7304 119.705 76.7997C119.535 76.869 119.392 76.9661 119.274 77.0909C119.156 77.2157 119.062 77.3647 118.993 77.538C118.927 77.7079 118.884 77.8951 118.863 78.0996L118.593 78.2555C118.593 77.9158 118.626 77.5969 118.691 77.2988C118.761 77.0007 118.866 76.7373 119.009 76.5085C119.151 76.2763 119.331 76.096 119.549 75.9678C119.771 75.8361 120.035 75.7702 120.34 75.7702C120.409 75.7702 120.489 75.7789 120.579 75.7962C120.669 75.8101 120.731 75.8257 120.766 75.843ZM124.764 80.5381V77.642C124.764 77.4202 124.719 77.2278 124.629 77.0649C124.543 76.8985 124.411 76.7702 124.234 76.6801C124.057 76.59 123.839 76.5449 123.579 76.5449C123.336 76.5449 123.123 76.5865 122.939 76.6697C122.759 76.7529 122.617 76.8621 122.513 76.9973C122.412 77.1325 122.362 77.2781 122.362 77.434H121.4C121.4 77.233 121.452 77.0337 121.556 76.8361C121.66 76.6385 121.809 76.46 122.003 76.3006C122.201 76.1376 122.437 76.0094 122.711 75.9158C122.988 75.8187 123.296 75.7702 123.636 75.7702C124.045 75.7702 124.406 75.8395 124.718 75.9782C125.033 76.1168 125.279 76.3266 125.456 76.6073C125.636 76.8846 125.726 77.233 125.726 77.6524V80.2729C125.726 80.4601 125.742 80.6594 125.773 80.8709C125.808 81.0823 125.858 81.2643 125.924 81.4168V81.5H124.92C124.872 81.3891 124.834 81.2418 124.806 81.058C124.778 80.8709 124.764 80.6976 124.764 80.5381ZM124.931 78.0892L124.941 78.7651H123.969C123.695 78.7651 123.451 78.7876 123.236 78.8327C123.021 78.8743 122.841 78.9384 122.695 79.0251C122.549 79.1117 122.438 79.2209 122.362 79.3526C122.286 79.4809 122.248 79.6317 122.248 79.805C122.248 79.9818 122.288 80.1429 122.367 80.2885C122.447 80.4341 122.567 80.5502 122.726 80.6369C122.889 80.7201 123.088 80.7617 123.324 80.7617C123.619 80.7617 123.879 80.6993 124.104 80.5745C124.329 80.4497 124.508 80.2972 124.64 80.1169C124.775 79.9367 124.848 79.7617 124.858 79.5918L125.269 80.0546C125.244 80.2001 125.179 80.3613 125.071 80.5381C124.964 80.7149 124.82 80.8847 124.64 81.0476C124.463 81.2071 124.251 81.3406 124.005 81.448C123.763 81.552 123.489 81.604 123.184 81.604C122.802 81.604 122.468 81.5295 122.18 81.3804C121.896 81.2314 121.674 81.032 121.515 80.7825C121.359 80.5294 121.281 80.2469 121.281 79.935C121.281 79.6334 121.34 79.3682 121.458 79.1395C121.575 78.9072 121.745 78.7148 121.967 78.5623C122.189 78.4063 122.456 78.2885 122.768 78.2088C123.08 78.129 123.428 78.0892 123.813 78.0892H124.931ZM130.785 80.4081V73.5137H131.752V81.5H130.868L130.785 80.4081ZM127 78.7495V78.6403C127 78.2105 127.052 77.8205 127.156 77.4704C127.264 77.1169 127.414 76.8136 127.608 76.5605C127.806 76.3075 128.04 76.1134 128.31 75.9782C128.584 75.8395 128.889 75.7702 129.225 75.7702C129.579 75.7702 129.888 75.8326 130.151 75.9574C130.418 76.0787 130.643 76.2572 130.827 76.4929C131.014 76.7252 131.161 77.0059 131.269 77.3352C131.376 77.6645 131.451 78.0372 131.492 78.4531V78.9315C131.454 79.344 131.38 79.7149 131.269 80.0442C131.161 80.3735 131.014 80.6542 130.827 80.8865C130.643 81.1187 130.418 81.2972 130.151 81.422C129.884 81.5433 129.572 81.604 129.215 81.604C128.886 81.604 128.584 81.5329 128.31 81.3908C128.04 81.2487 127.806 81.0494 127.608 80.7929C127.414 80.5364 127.264 80.2348 127.156 79.8882C127.052 79.5381 127 79.1585 127 78.7495ZM127.967 78.6403V78.7495C127.967 79.0303 127.995 79.2937 128.05 79.5398C128.109 79.7859 128.199 80.0026 128.321 80.1897C128.442 80.3769 128.596 80.5242 128.784 80.6317C128.971 80.7357 129.194 80.7877 129.454 80.7877C129.773 80.7877 130.035 80.7201 130.239 80.5849C130.447 80.4497 130.614 80.2712 130.739 80.0494C130.863 79.8275 130.96 79.5866 131.03 79.3266V78.0736C130.988 77.8829 130.927 77.6992 130.848 77.5224C130.771 77.3422 130.671 77.1827 130.546 77.0441C130.425 76.902 130.274 76.7893 130.094 76.7061C129.917 76.6229 129.707 76.5813 129.465 76.5813C129.201 76.5813 128.974 76.6368 128.784 76.7477C128.596 76.8552 128.442 77.0042 128.321 77.1949C128.199 77.382 128.109 77.6004 128.05 77.85C127.995 78.0961 127.967 78.3595 127.967 78.6403ZM136.692 80.2001V75.8742H137.659V81.5H136.739L136.692 80.2001ZM136.874 79.0147L137.274 79.0043C137.274 79.3786 137.234 79.7253 137.155 80.0442C137.078 80.3596 136.954 80.6334 136.78 80.8657C136.607 81.0979 136.38 81.2799 136.099 81.4116C135.818 81.5399 135.477 81.604 135.075 81.604C134.801 81.604 134.55 81.5641 134.321 81.4844C134.096 81.4047 133.902 81.2816 133.739 81.1152C133.576 80.9489 133.449 80.7322 133.359 80.4653C133.272 80.1984 133.229 79.8778 133.229 79.5034V75.8742H134.191V79.5138C134.191 79.7669 134.219 79.9766 134.274 80.1429C134.333 80.3059 134.411 80.4358 134.508 80.5329C134.609 80.6265 134.72 80.6924 134.841 80.7305C134.966 80.7686 135.094 80.7877 135.226 80.7877C135.635 80.7877 135.959 80.7097 136.198 80.5537C136.437 80.3943 136.609 80.1811 136.713 79.9142C136.82 79.6438 136.874 79.344 136.874 79.0147ZM141.377 80.8137C141.605 80.8137 141.817 80.7669 142.011 80.6733C142.205 80.5797 142.364 80.4514 142.489 80.2885C142.614 80.1221 142.685 79.9332 142.702 79.7218H143.618C143.6 80.0546 143.488 80.3648 143.28 80.6525C143.075 80.9367 142.806 81.1672 142.474 81.344C142.141 81.5173 141.775 81.604 141.377 81.604C140.954 81.604 140.585 81.5295 140.269 81.3804C139.957 81.2314 139.697 81.0269 139.489 80.7669C139.285 80.5069 139.13 80.2088 139.026 79.8726C138.926 79.5329 138.876 79.1741 138.876 78.7963V78.5779C138.876 78.2001 138.926 77.8431 139.026 77.5068C139.13 77.1671 139.285 76.8673 139.489 76.6073C139.697 76.3474 139.957 76.1428 140.269 75.9938C140.585 75.8447 140.954 75.7702 141.377 75.7702C141.817 75.7702 142.202 75.8603 142.531 76.0406C142.86 76.2174 143.118 76.46 143.306 76.7685C143.496 77.0735 143.6 77.4202 143.618 77.8084H142.702C142.685 77.5762 142.619 77.3664 142.505 77.1793C142.394 76.9921 142.241 76.843 142.047 76.7321C141.857 76.6177 141.633 76.5605 141.377 76.5605C141.082 76.5605 140.834 76.6195 140.633 76.7373C140.435 76.8517 140.278 77.0077 140.16 77.2053C140.046 77.3994 139.962 77.616 139.91 77.8552C139.862 78.0909 139.838 78.3318 139.838 78.5779V78.7963C139.838 79.0424 139.862 79.285 139.91 79.5242C139.959 79.7634 140.04 79.98 140.155 80.1741C140.273 80.3683 140.43 80.5242 140.628 80.6421C140.829 80.7565 141.078 80.8137 141.377 80.8137ZM147.054 75.8742V76.6125H144.013V75.8742H147.054ZM145.042 74.5067H146.004V80.1065C146.004 80.2972 146.034 80.441 146.092 80.5381C146.151 80.6352 146.228 80.6993 146.321 80.7305C146.415 80.7617 146.515 80.7773 146.623 80.7773C146.703 80.7773 146.786 80.7703 146.872 80.7565C146.963 80.7391 147.03 80.7253 147.075 80.7149L147.08 81.5C147.004 81.5243 146.904 81.5468 146.779 81.5676C146.657 81.5919 146.51 81.604 146.337 81.604C146.101 81.604 145.884 81.5572 145.687 81.4636C145.489 81.37 145.332 81.214 145.214 80.9957C145.099 80.7738 145.042 80.4757 145.042 80.1013V74.5067ZM149.228 75.8742V81.5H148.261V75.8742H149.228ZM148.188 74.382C148.188 74.226 148.235 74.0943 148.328 73.9868C148.425 73.8793 148.567 73.8256 148.755 73.8256C148.938 73.8256 149.079 73.8793 149.176 73.9868C149.276 74.0943 149.327 74.226 149.327 74.382C149.327 74.531 149.276 74.6593 149.176 74.7667C149.079 74.8707 148.938 74.9227 148.755 74.9227C148.567 74.9227 148.425 74.8707 148.328 74.7667C148.235 74.6593 148.188 74.531 148.188 74.382ZM150.517 78.7495V78.6299C150.517 78.2243 150.576 77.8483 150.694 77.5016C150.812 77.1515 150.982 76.8482 151.204 76.5917C151.425 76.3318 151.694 76.1307 152.009 75.9886C152.325 75.843 152.678 75.7702 153.07 75.7702C153.465 75.7702 153.821 75.843 154.136 75.9886C154.455 76.1307 154.725 76.3318 154.947 76.5917C155.172 76.8482 155.344 77.1515 155.462 77.5016C155.58 77.8483 155.639 78.2243 155.639 78.6299V78.7495C155.639 79.1551 155.58 79.5311 155.462 79.8778C155.344 80.2244 155.172 80.5277 154.947 80.7877C154.725 81.0442 154.457 81.2452 154.141 81.3908C153.829 81.5329 153.476 81.604 153.081 81.604C152.685 81.604 152.33 81.5329 152.015 81.3908C151.699 81.2452 151.429 81.0442 151.204 80.7877C150.982 80.5277 150.812 80.2244 150.694 79.8778C150.576 79.5311 150.517 79.1551 150.517 78.7495ZM151.479 78.6299V78.7495C151.479 79.0303 151.512 79.2954 151.578 79.545C151.644 79.7911 151.743 80.0095 151.874 80.2001C152.009 80.3908 152.178 80.5416 152.379 80.6525C152.58 80.7599 152.814 80.8137 153.081 80.8137C153.344 80.8137 153.574 80.7599 153.772 80.6525C153.973 80.5416 154.139 80.3908 154.271 80.2001C154.403 80.0095 154.502 79.7911 154.568 79.545C154.637 79.2954 154.672 79.0303 154.672 78.7495V78.6299C154.672 78.3526 154.637 78.0909 154.568 77.8448C154.502 77.5952 154.401 77.3751 154.266 77.1845C154.134 76.9903 153.968 76.8378 153.767 76.7269C153.569 76.616 153.337 76.5605 153.07 76.5605C152.807 76.5605 152.574 76.616 152.373 76.7269C152.176 76.8378 152.009 76.9903 151.874 77.1845C151.743 77.3751 151.644 77.5952 151.578 77.8448C151.512 78.0909 151.479 78.3526 151.479 78.6299ZM157.807 77.0753V81.5H156.845V75.8742H157.755L157.807 77.0753ZM157.578 78.4739L157.178 78.4583C157.181 78.0736 157.238 77.7183 157.349 77.3924C157.46 77.0631 157.616 76.7772 157.817 76.5345C158.018 76.2919 158.257 76.1047 158.535 75.973C158.816 75.8378 159.126 75.7702 159.465 75.7702C159.743 75.7702 159.992 75.8083 160.214 75.8846C160.436 75.9574 160.625 76.0752 160.781 76.2382C160.94 76.4011 161.062 76.6125 161.145 76.8725C161.228 77.129 161.27 77.4427 161.27 77.8136V81.5H160.303V77.8032C160.303 77.5086 160.259 77.2729 160.173 77.0961C160.086 76.9158 159.959 76.7858 159.793 76.7061C159.627 76.6229 159.422 76.5813 159.179 76.5813C158.94 76.5813 158.722 76.6316 158.524 76.7321C158.33 76.8326 158.162 76.9713 158.02 77.1481C157.881 77.3248 157.772 77.5276 157.692 77.7564C157.616 77.9817 157.578 78.2209 157.578 78.4739Z" fill="white"/>
<path fill-rule="evenodd" clip-rule="evenodd" d="M29.4816 125.291C29.7415 125.031 30.1629 125.031 30.4228 125.291L36.4125 131.28C36.6724 131.54 36.6724 131.962 36.4125 132.221C36.1526 132.481 35.7312 132.481 35.4713 132.221L35.2764 132.027V137.075C35.2764 137.428 35.1362 137.767 34.8865 138.016C34.6369 138.266 34.2984 138.406 33.9453 138.406H25.959C25.606 138.406 25.2674 138.266 25.0178 138.016C24.7682 137.767 24.6279 137.428 24.6279 137.075V132.027L24.433 132.221C24.1731 132.481 23.7517 132.481 23.4918 132.221C23.2319 131.962 23.2319 131.54 23.4918 131.28L29.4816 125.291ZM25.959 130.695V137.075H27.9556V134.413C27.9556 134.06 28.0958 133.721 28.3454 133.472C28.5951 133.222 28.9336 133.082 29.2866 133.082H30.6177C30.9707 133.082 31.3093 133.222 31.5589 133.472C31.8085 133.721 31.9488 134.06 31.9488 134.413V137.075H33.9453V130.695L29.9522 126.702L25.959 130.695ZM30.6177 137.075V134.413H29.2866V137.075H30.6177Z" fill="white"/>
<path d="M48.3114 130.53L46.0496 137.092H44.6821L47.5314 129.522H48.4049L48.3114 130.53ZM50.204 137.092L47.937 130.53L47.8382 129.522H48.7169L51.5766 137.092H50.204ZM50.0948 134.284V135.319H45.9768V134.284H50.0948ZM54.5975 136.198C54.802 136.198 54.9857 136.158 55.1486 136.078C55.315 135.995 55.4485 135.881 55.549 135.735C55.653 135.59 55.7102 135.421 55.7206 135.231H56.9008C56.8939 135.595 56.7864 135.926 56.5785 136.224C56.3705 136.522 56.0949 136.759 55.7518 136.936C55.4086 137.109 55.029 137.196 54.6131 137.196C54.1833 137.196 53.8089 137.123 53.49 136.978C53.1711 136.829 52.9059 136.624 52.6945 136.364C52.483 136.104 52.3236 135.804 52.2161 135.465C52.1121 135.125 52.0602 134.761 52.0602 134.373V134.191C52.0602 133.803 52.1121 133.439 52.2161 133.099C52.3236 132.756 52.483 132.454 52.6945 132.194C52.9059 131.934 53.1711 131.732 53.49 131.586C53.8089 131.437 54.1815 131.362 54.6079 131.362C55.0585 131.362 55.4537 131.452 55.7934 131.633C56.1331 131.81 56.4 132.057 56.5941 132.376C56.7916 132.692 56.8939 133.059 56.9008 133.479H55.7206C55.7102 133.271 55.6582 133.083 55.5646 132.917C55.4745 132.747 55.3462 132.612 55.1798 132.511C55.0169 132.411 54.8211 132.361 54.5923 132.361C54.3392 132.361 54.1295 132.413 53.9631 132.517C53.7968 132.617 53.6668 132.756 53.5732 132.933C53.4796 133.106 53.412 133.302 53.3704 133.52C53.3323 133.735 53.3132 133.959 53.3132 134.191V134.373C53.3132 134.605 53.3323 134.83 53.3704 135.049C53.4085 135.267 53.4744 135.463 53.568 135.636C53.665 135.806 53.7968 135.943 53.9631 136.047C54.1295 136.148 54.341 136.198 54.5975 136.198ZM60.1609 136.198C60.3654 136.198 60.5491 136.158 60.712 136.078C60.8784 135.995 61.0119 135.881 61.1124 135.735C61.2164 135.59 61.2736 135.421 61.284 135.231H62.4642C62.4573 135.595 62.3499 135.926 62.1419 136.224C61.9339 136.522 61.6583 136.759 61.3152 136.936C60.972 137.109 60.5924 137.196 60.1765 137.196C59.7467 137.196 59.3723 137.123 59.0534 136.978C58.7345 136.829 58.4693 136.624 58.2579 136.364C58.0464 136.104 57.887 135.804 57.7795 135.465C57.6756 135.125 57.6236 134.761 57.6236 134.373V134.191C57.6236 133.803 57.6756 133.439 57.7795 133.099C57.887 132.756 58.0464 132.454 58.2579 132.194C58.4693 131.934 58.7345 131.732 59.0534 131.586C59.3723 131.437 59.7449 131.362 60.1713 131.362C60.6219 131.362 61.0171 131.452 61.3568 131.633C61.6965 131.81 61.9634 132.057 62.1575 132.376C62.3551 132.692 62.4573 133.059 62.4642 133.479H61.284C61.2736 133.271 61.2216 133.083 61.128 132.917C61.0379 132.747 60.9096 132.612 60.7432 132.511C60.5803 132.411 60.3845 132.361 60.1557 132.361C59.9026 132.361 59.6929 132.413 59.5266 132.517C59.3602 132.617 59.2302 132.756 59.1366 132.933C59.043 133.106 58.9754 133.302 58.9338 133.52C58.8957 133.735 58.8766 133.959 58.8766 134.191V134.373C58.8766 134.605 58.8957 134.83 58.9338 135.049C58.9719 135.267 59.0378 135.463 59.1314 135.636C59.2285 135.806 59.3602 135.943 59.5266 136.047C59.6929 136.148 59.9044 136.198 60.1609 136.198ZM66.811 135.766V131.466H68.0692V137.092H66.8838L66.811 135.766ZM66.9878 134.596L67.4089 134.586C67.4089 134.964 67.3673 135.312 67.2841 135.631C67.2009 135.947 67.0727 136.222 66.8994 136.458C66.7261 136.69 66.5042 136.872 66.2338 137.004C65.9635 137.132 65.6394 137.196 65.2615 137.196C64.9877 137.196 64.7364 137.156 64.5076 137.077C64.2788 136.997 64.0813 136.874 63.9149 136.707C63.752 136.541 63.6255 136.324 63.5353 136.057C63.4452 135.791 63.4001 135.472 63.4001 135.101V131.466H64.6532V135.111C64.6532 135.316 64.6775 135.487 64.726 135.626C64.7745 135.761 64.8404 135.87 64.9236 135.953C65.0068 136.037 65.1038 136.096 65.2147 136.13C65.3257 136.165 65.4435 136.182 65.5683 136.182C65.9253 136.182 66.2061 136.113 66.4106 135.974C66.6186 135.832 66.7659 135.642 66.8526 135.402C66.9427 135.163 66.9878 134.895 66.9878 134.596ZM71.8336 137.196C71.4177 137.196 71.0416 137.129 70.7054 136.993C70.3726 136.855 70.0884 136.662 69.8527 136.416C69.6204 136.17 69.4419 135.881 69.3171 135.548C69.1923 135.215 69.1299 134.856 69.1299 134.472V134.264C69.1299 133.823 69.1941 133.425 69.3223 133.068C69.4506 132.711 69.6291 132.406 69.8579 132.153C70.0866 131.896 70.357 131.7 70.669 131.565C70.9809 131.43 71.3189 131.362 71.6829 131.362C72.0849 131.362 72.4368 131.43 72.7383 131.565C73.0399 131.7 73.2895 131.891 73.4871 132.137C73.6881 132.38 73.8372 132.669 73.9342 133.005C74.0347 133.342 74.085 133.713 74.085 134.118V134.654H69.7383V133.754H72.8475V133.655C72.8406 133.43 72.7955 133.219 72.7123 133.021C72.6326 132.823 72.5096 132.664 72.3432 132.543C72.1768 132.421 71.955 132.361 71.6777 132.361C71.4697 132.361 71.2842 132.406 71.1213 132.496C70.9619 132.583 70.8284 132.709 70.721 132.875C70.6135 133.042 70.5303 133.243 70.4714 133.479C70.4159 133.711 70.3882 133.972 70.3882 134.264V134.472C70.3882 134.718 70.4211 134.947 70.487 135.158C70.5563 135.366 70.6568 135.548 70.7886 135.704C70.9203 135.86 71.0797 135.983 71.2669 136.073C71.4541 136.16 71.6673 136.203 71.9064 136.203C72.208 136.203 72.4766 136.142 72.7123 136.021C72.9481 135.9 73.1526 135.728 73.3259 135.506L73.9862 136.146C73.8649 136.323 73.7072 136.492 73.5131 136.655C73.3189 136.815 73.0815 136.945 72.8007 137.045C72.5234 137.146 72.2011 137.196 71.8336 137.196ZM76.404 131.466V137.092H75.1457V131.466H76.404ZM75.0625 129.99C75.0625 129.799 75.1249 129.641 75.2497 129.517C75.3779 129.388 75.5547 129.324 75.78 129.324C76.0019 129.324 76.1769 129.388 76.3052 129.517C76.4334 129.641 76.4975 129.799 76.4975 129.99C76.4975 130.177 76.4334 130.333 76.3052 130.458C76.1769 130.582 76.0019 130.645 75.78 130.645C75.5547 130.645 75.3779 130.582 75.2497 130.458C75.1249 130.333 75.0625 130.177 75.0625 129.99ZM79.1181 129.106V137.092H77.8598V129.106H79.1181Z" fill="#919294"/>
<path fill-rule="evenodd" clip-rule="evenodd" d="M30.6177 160.369C29.2056 160.369 27.8514 160.93 26.8529 161.928C25.8544 162.927 25.2935 164.281 25.2935 165.693C25.2935 166.392 25.4312 167.084 25.6987 167.73C25.9663 168.376 26.3585 168.963 26.8529 169.458C27.3473 169.952 27.9342 170.344 28.5802 170.612C29.2262 170.879 29.9185 171.017 30.6177 171.017C31.3169 171.017 32.0092 170.879 32.6552 170.612C33.3012 170.344 33.8881 169.952 34.3825 169.458C34.8769 168.963 35.2691 168.376 35.5366 167.73C35.8042 167.084 35.9419 166.392 35.9419 165.693C35.9419 164.281 35.381 162.927 34.3825 161.928C33.384 160.93 32.0298 160.369 30.6177 160.369ZM25.9117 160.987C27.1598 159.739 28.8526 159.038 30.6177 159.038C32.3828 159.038 34.0756 159.739 35.3237 160.987C36.5718 162.235 37.273 163.928 37.273 165.693C37.273 166.567 37.1008 167.432 36.7664 168.24C36.4319 169.047 35.9417 169.781 35.3237 170.399C34.7057 171.017 33.972 171.507 33.1646 171.842C32.3571 172.176 31.4917 172.348 30.6177 172.348C29.7437 172.348 28.8783 172.176 28.0708 171.842C27.2634 171.507 26.5297 171.017 25.9117 170.399C25.2937 169.781 24.8035 169.047 24.469 168.24C24.1345 167.432 23.9624 166.567 23.9624 165.693C23.9624 163.928 24.6636 162.235 25.9117 160.987ZM30.6177 162.365C30.9853 162.365 31.2832 162.663 31.2832 163.031V165.417L33.0849 167.219C33.3448 167.479 33.3448 167.9 33.0849 168.16C32.825 168.42 32.4036 168.42 32.1437 168.16L30.1471 166.163C30.0223 166.039 29.9522 165.869 29.9522 165.693V163.031C29.9522 162.663 30.2501 162.365 30.6177 162.365Z" fill="white"/>
<path d="M53.693 164.628V165.663H49.6738V164.628H53.693ZM49.9962 161.467V169.037H48.6911V161.467H49.9962ZM54.6965 161.467V169.037H53.3966V161.467H54.6965ZM57.4678 163.412V169.037H56.2095V163.412H57.4678ZM56.1264 161.935C56.1264 161.744 56.1887 161.587 56.3135 161.462C56.4418 161.334 56.6186 161.27 56.8439 161.27C57.0657 161.27 57.2408 161.334 57.369 161.462C57.4973 161.587 57.5614 161.744 57.5614 161.935C57.5614 162.122 57.4973 162.278 57.369 162.403C57.2408 162.528 57.0657 162.59 56.8439 162.59C56.6186 162.59 56.4418 162.528 56.3135 162.403C56.1887 162.278 56.1264 162.122 56.1264 161.935ZM61.9965 167.514C61.9965 167.389 61.9653 167.277 61.9029 167.176C61.8405 167.072 61.721 166.978 61.5442 166.895C61.3709 166.812 61.1144 166.736 60.7747 166.667C60.4766 166.601 60.2027 166.523 59.9531 166.433C59.707 166.339 59.4956 166.226 59.3188 166.095C59.142 165.963 59.0051 165.807 58.9081 165.627C58.811 165.446 58.7625 165.238 58.7625 165.003C58.7625 164.774 58.8127 164.557 58.9133 164.353C59.0138 164.148 59.1576 163.968 59.3448 163.812C59.532 163.656 59.759 163.533 60.0259 163.443C60.2963 163.353 60.5979 163.308 60.9306 163.308C61.4021 163.308 61.8059 163.387 62.1421 163.547C62.4818 163.703 62.7418 163.916 62.922 164.186C63.1023 164.453 63.1924 164.755 63.1924 165.091H61.9393C61.9393 164.942 61.9012 164.803 61.8249 164.675C61.7522 164.543 61.6412 164.438 61.4922 164.358C61.3431 164.275 61.156 164.233 60.9306 164.233C60.7157 164.233 60.5372 164.268 60.3951 164.337C60.2564 164.403 60.1525 164.49 60.0831 164.597C60.0173 164.705 59.9843 164.822 59.9843 164.951C59.9843 165.044 60.0017 165.129 60.0363 165.205C60.0745 165.278 60.1369 165.346 60.2235 165.408C60.3102 165.467 60.428 165.523 60.5771 165.575C60.7296 165.627 60.9202 165.677 61.149 165.725C61.5788 165.816 61.948 165.932 62.2565 166.074C62.5685 166.212 62.8076 166.393 62.974 166.615C63.1404 166.833 63.2236 167.11 63.2236 167.446C63.2236 167.696 63.1699 167.925 63.0624 168.133C62.9584 168.337 62.8059 168.516 62.6049 168.668C62.4038 168.817 62.1629 168.933 61.8821 169.017C61.6048 169.1 61.2929 169.141 60.9462 169.141C60.4367 169.141 60.0051 169.051 59.6516 168.871C59.298 168.687 59.0294 168.453 58.8457 168.169C58.6654 167.881 58.5753 167.583 58.5753 167.275H59.7868C59.8006 167.507 59.8648 167.693 59.9791 167.831C60.097 167.966 60.2426 168.065 60.4159 168.128C60.5927 168.186 60.7747 168.216 60.9618 168.216C61.1871 168.216 61.3761 168.186 61.5286 168.128C61.6811 168.065 61.7972 167.982 61.8769 167.878C61.9567 167.771 61.9965 167.649 61.9965 167.514ZM66.8996 163.412V164.327H63.7279V163.412H66.8996ZM64.643 162.034H65.8961V167.483C65.8961 167.656 65.9204 167.79 65.9689 167.883C66.0209 167.973 66.092 168.034 66.1821 168.065C66.2722 168.096 66.3779 168.112 66.4992 168.112C66.5859 168.112 66.6691 168.107 66.7488 168.096C66.8285 168.086 66.8927 168.076 66.9412 168.065L66.9464 169.022C66.8424 169.053 66.7211 169.081 66.5824 169.105C66.4473 169.129 66.2913 169.141 66.1145 169.141C65.8268 169.141 65.572 169.091 65.3502 168.991C65.1283 168.887 64.955 168.719 64.8302 168.486C64.7054 168.254 64.643 167.946 64.643 167.561V162.034ZM67.5027 166.287V166.167C67.5027 165.762 67.5617 165.386 67.6795 165.039C67.7974 164.689 67.9672 164.386 68.1891 164.129C68.4144 163.869 68.6882 163.668 69.0106 163.526C69.3364 163.38 69.7038 163.308 70.1129 163.308C70.5254 163.308 70.8928 163.38 71.2151 163.526C71.541 163.668 71.8165 163.869 72.0419 164.129C72.2672 164.386 72.4387 164.689 72.5566 165.039C72.6745 165.386 72.7334 165.762 72.7334 166.167V166.287C72.7334 166.693 72.6745 167.069 72.5566 167.415C72.4387 167.762 72.2672 168.065 72.0419 168.325C71.8165 168.582 71.5427 168.783 71.2203 168.928C70.898 169.07 70.5323 169.141 70.1233 169.141C69.7108 169.141 69.3416 169.07 69.0158 168.928C68.6934 168.783 68.4196 168.582 68.1943 168.325C67.969 168.065 67.7974 167.762 67.6795 167.415C67.5617 167.069 67.5027 166.693 67.5027 166.287ZM68.7558 166.167V166.287C68.7558 166.54 68.7818 166.779 68.8338 167.004C68.8858 167.23 68.9673 167.427 69.0782 167.597C69.1891 167.767 69.3312 167.901 69.5045 167.998C69.6778 168.095 69.8841 168.143 70.1233 168.143C70.3555 168.143 70.5565 168.095 70.7264 167.998C70.8997 167.901 71.0418 167.767 71.1528 167.597C71.2637 167.427 71.3451 167.23 71.3971 167.004C71.4526 166.779 71.4803 166.54 71.4803 166.287V166.167C71.4803 165.918 71.4526 165.682 71.3971 165.46C71.3451 165.235 71.2619 165.036 71.1476 164.862C71.0366 164.689 70.8945 164.554 70.7212 164.457C70.5513 164.356 70.3486 164.306 70.1129 164.306C69.8772 164.306 69.6726 164.356 69.4993 164.457C69.3295 164.554 69.1891 164.689 69.0782 164.862C68.9673 165.036 68.8858 165.235 68.8338 165.46C68.7818 165.682 68.7558 165.918 68.7558 166.167ZM75.0419 164.483V169.037H73.7889V163.412H74.9847L75.0419 164.483ZM76.763 163.375L76.7526 164.54C76.6763 164.526 76.5931 164.516 76.503 164.509C76.4163 164.502 76.3297 164.498 76.243 164.498C76.0281 164.498 75.8392 164.53 75.6763 164.592C75.5134 164.651 75.3764 164.738 75.2655 164.852C75.1581 164.963 75.0749 165.098 75.0159 165.257C74.957 165.417 74.9223 165.595 74.9119 165.793L74.626 165.814C74.626 165.46 74.6606 165.133 74.73 164.831C74.7993 164.53 74.9033 164.264 75.0419 164.036C75.1841 163.807 75.3608 163.628 75.5723 163.5C75.7872 163.372 76.035 163.308 76.3158 163.308C76.3921 163.308 76.4735 163.315 76.5602 163.328C76.6503 163.342 76.7179 163.358 76.763 163.375ZM78.8895 163.412V169.037H77.6313V163.412H78.8895ZM77.5481 161.935C77.5481 161.744 77.6105 161.587 77.7352 161.462C77.8635 161.334 78.0403 161.27 78.2656 161.27C78.4874 161.27 78.6625 161.334 78.7907 161.462C78.919 161.587 78.9831 161.744 78.9831 161.935C78.9831 162.122 78.919 162.278 78.7907 162.403C78.6625 162.528 78.4874 162.59 78.2656 162.59C78.0403 162.59 77.8635 162.528 77.7352 162.403C77.6105 162.278 77.5481 162.122 77.5481 161.935ZM83.6886 171.2V164.53L83.8342 163.412H84.9521V171.2H83.6886ZM80.0334 166.282V166.173C80.0334 165.746 80.0819 165.358 80.179 165.008C80.276 164.654 80.4199 164.351 80.6105 164.098C80.8012 163.845 81.0334 163.651 81.3073 163.516C81.5811 163.377 81.8965 163.308 82.2536 163.308C82.6002 163.308 82.9018 163.374 83.1583 163.505C83.4182 163.637 83.6366 163.826 83.8134 164.072C83.9936 164.315 84.1375 164.604 84.245 164.94C84.3524 165.277 84.4304 165.651 84.4789 166.063V166.412C84.4339 166.814 84.3576 167.181 84.2502 167.514C84.1427 167.847 83.9988 168.135 83.8186 168.377C83.6384 168.62 83.4182 168.809 83.1583 168.944C82.8983 169.076 82.5933 169.141 82.2432 169.141C81.8931 169.141 81.5811 169.07 81.3073 168.928C81.0334 168.786 80.8012 168.587 80.6105 168.33C80.4234 168.07 80.2795 167.767 80.179 167.42C80.0819 167.07 80.0334 166.691 80.0334 166.282ZM81.2865 166.173V166.282C81.2865 166.538 81.309 166.779 81.3541 167.004C81.4026 167.226 81.4788 167.424 81.5828 167.597C81.6868 167.767 81.8185 167.901 81.978 167.998C82.1374 168.095 82.3298 168.143 82.5551 168.143C82.8498 168.143 83.0907 168.079 83.2779 167.951C83.4685 167.823 83.6141 167.651 83.7146 167.436C83.8186 167.218 83.8914 166.977 83.933 166.713V165.772C83.9087 165.568 83.8654 165.377 83.803 165.2C83.7406 165.02 83.6539 164.864 83.543 164.732C83.4356 164.597 83.3004 164.493 83.1375 164.42C82.978 164.344 82.7874 164.306 82.5655 164.306C82.3402 164.306 82.1461 164.355 81.9832 164.452C81.8203 164.549 81.6868 164.684 81.5828 164.857C81.4823 165.027 81.4078 165.225 81.3593 165.45C81.3107 165.675 81.2865 165.916 81.2865 166.173ZM89.6784 167.712V163.412H90.9366V169.037H89.7512L89.6784 167.712ZM89.8552 166.542L90.2763 166.531C90.2763 166.909 90.2347 167.258 90.1515 167.576C90.0683 167.892 89.9401 168.167 89.7668 168.403C89.5934 168.635 89.3716 168.817 89.1012 168.949C88.8309 169.077 88.5068 169.141 88.1289 169.141C87.8551 169.141 87.6038 169.102 87.375 169.022C87.1462 168.942 86.9487 168.819 86.7823 168.653C86.6194 168.486 86.4928 168.27 86.4027 168.003C86.3126 167.736 86.2675 167.417 86.2675 167.046V163.412H87.5206V167.056C87.5206 167.261 87.5449 167.433 87.5934 167.571C87.6419 167.706 87.7078 167.816 87.791 167.899C87.8742 167.982 87.9712 168.041 88.0821 168.076C88.1931 168.11 88.3109 168.128 88.4357 168.128C88.7927 168.128 89.0735 168.058 89.278 167.92C89.486 167.777 89.6333 167.587 89.72 167.348C89.8101 167.108 89.8552 166.84 89.8552 166.542ZM94.701 169.141C94.2851 169.141 93.909 169.074 93.5728 168.939C93.24 168.8 92.9558 168.608 92.72 168.362C92.4878 168.115 92.3093 167.826 92.1845 167.493C92.0597 167.16 91.9973 166.802 91.9973 166.417V166.209C91.9973 165.769 92.0615 165.37 92.1897 165.013C92.318 164.656 92.4965 164.351 92.7252 164.098C92.954 163.841 93.2244 163.646 93.5364 163.51C93.8483 163.375 94.1863 163.308 94.5503 163.308C94.9523 163.308 95.3042 163.375 95.6057 163.51C95.9073 163.646 96.1569 163.836 96.3545 164.082C96.5555 164.325 96.7046 164.614 96.8016 164.951C96.9021 165.287 96.9524 165.658 96.9524 166.063V166.599H92.6057V165.699H95.7149V165.601C95.708 165.375 95.6629 165.164 95.5797 164.966C95.5 164.769 95.377 164.609 95.2106 164.488C95.0442 164.367 94.8224 164.306 94.5451 164.306C94.3371 164.306 94.1516 164.351 93.9887 164.441C93.8293 164.528 93.6958 164.654 93.5884 164.821C93.4809 164.987 93.3977 165.188 93.3388 165.424C93.2833 165.656 93.2556 165.918 93.2556 166.209V166.417C93.2556 166.663 93.2885 166.892 93.3544 167.103C93.4237 167.311 93.5242 167.493 93.6559 167.649C93.7877 167.805 93.9471 167.928 94.1343 168.018C94.3215 168.105 94.5347 168.148 94.7738 168.148C95.0754 168.148 95.344 168.088 95.5797 167.966C95.8155 167.845 96.02 167.673 96.1933 167.452L96.8536 168.091C96.7323 168.268 96.5746 168.438 96.3805 168.601C96.1863 168.76 95.9489 168.89 95.6681 168.991C95.3908 169.091 95.0685 169.141 94.701 169.141Z" fill="#919294"/>
<rect x="195.669" y="-14" width="1.33106" height="459.215" fill="#919294" fill-opacity="0.2"/>
</g>
<defs>
<clipPath id="clip0_5_115">
<rect width="703" height="397" fill="white"/>
</clipPath>
<clipPath id="clip1_5_115">
<rect width="75.8703" height="27.2867" fill="white" transform="translate(14.645 14.6177)"/>
</clipPath>
</defs>
</svg>
