<svg width="114" height="41" viewBox="0 0 114 41" fill="none" xmlns="http://www.w3.org/2000/svg">
<g clip-path="url(#clip0_3_6)">
<path d="M24 16L20 0L14.5 16L0 20.5L14.5 25.5L20 40.5L24 25.5L40 20.5L24 16Z" fill="white" stroke="white"/>
<path d="M56.54 28.91C54.7667 28.91 53.3467 28.5767 52.28 27.91C51.2133 27.23 50.68 26.1967 50.68 24.81C50.68 24.0767 50.8067 23.5167 51.06 23.13C51.3133 22.7433 51.6867 22.55 52.18 22.55C52.54 22.55 52.8333 22.6433 53.06 22.83C53.2867 23.0167 53.4 23.2567 53.4 23.55C53.4 23.8167 53.38 24.05 53.34 24.25C53.34 24.3033 53.3267 24.3967 53.3 24.53C53.2867 24.6633 53.28 24.8033 53.28 24.95C53.28 25.55 53.58 25.9967 54.18 26.29C54.7933 26.5833 55.6467 26.73 56.74 26.73C57.8733 26.73 58.76 26.53 59.4 26.13C60.04 25.7167 60.36 25.1433 60.36 24.41C60.36 23.9567 60.2133 23.57 59.92 23.25C59.6267 22.9167 59.26 22.6433 58.82 22.43C58.38 22.2033 57.76 21.93 56.96 21.61C55.9333 21.21 55.0933 20.83 54.44 20.47C53.8 20.11 53.2467 19.6233 52.78 19.01C52.3267 18.3833 52.1 17.61 52.1 16.69C52.1 15.73 52.3533 14.8767 52.86 14.13C53.38 13.3833 54.12 12.8033 55.08 12.39C56.0533 11.9767 57.1933 11.77 58.5 11.77C59.4733 11.77 60.3667 11.9167 61.18 12.21C61.9933 12.49 62.64 12.9233 63.12 13.51C63.6133 14.0967 63.86 14.8167 63.86 15.67C63.86 16.51 63.7333 17.1433 63.48 17.57C63.2267 17.9967 62.8533 18.21 62.36 18.21C62.0133 18.21 61.72 18.1033 61.48 17.89C61.2533 17.6767 61.14 17.4233 61.14 17.13C61.14 16.8767 61.16 16.6433 61.2 16.43C61.24 16.03 61.26 15.7767 61.26 15.67C61.26 15.11 60.9867 14.6833 60.44 14.39C59.8933 14.0967 59.2133 13.95 58.4 13.95C57.2533 13.95 56.3733 14.1633 55.76 14.59C55.16 15.0033 54.86 15.59 54.86 16.35C54.86 16.8567 55.0133 17.29 55.32 17.65C55.64 18.01 56.0333 18.31 56.5 18.55C56.9667 18.79 57.62 19.0767 58.46 19.41C59.4733 19.8233 60.2867 20.1967 60.9 20.53C61.5133 20.8633 62.0333 21.3167 62.46 21.89C62.9 22.4633 63.12 23.17 63.12 24.01C63.12 25.5833 62.52 26.7967 61.32 27.65C60.1333 28.49 58.54 28.91 56.54 28.91ZM67.3495 18.11C66.7895 18.11 66.3695 17.9833 66.0895 17.73C65.8095 17.4633 65.6695 17.0967 65.6695 16.63C65.6695 16.1633 65.8495 15.7767 66.2095 15.47C66.5829 15.15 67.0429 14.99 67.5895 14.99C68.0829 14.99 68.4829 15.11 68.7895 15.35C69.0962 15.59 69.2495 15.93 69.2495 16.37C69.2495 16.9033 69.0762 17.33 68.7295 17.65C68.3829 17.9567 67.9229 18.11 67.3495 18.11ZM67.1895 28.85C66.3229 28.85 65.6895 28.5433 65.2895 27.93C64.9029 27.3167 64.7095 26.5033 64.7095 25.49C64.7095 24.89 64.7829 24.1233 64.9295 23.19C65.0895 22.2433 65.2895 21.3633 65.5295 20.55C65.6495 20.1233 65.8095 19.83 66.0095 19.67C66.2095 19.51 66.5295 19.43 66.9695 19.43C67.6495 19.43 67.9895 19.6567 67.9895 20.11C67.9895 20.4433 67.8629 21.2167 67.6095 22.43C67.2895 23.8967 67.1295 24.89 67.1295 25.41C67.1295 25.81 67.1829 26.1167 67.2895 26.33C67.3962 26.5433 67.5762 26.65 67.8295 26.65C68.0695 26.65 68.3695 26.4833 68.7295 26.15C69.0895 25.8167 69.5695 25.29 70.1695 24.57C70.3295 24.3833 70.5095 24.29 70.7095 24.29C70.8829 24.29 71.0162 24.37 71.1095 24.53C71.2162 24.69 71.2695 24.91 71.2695 25.19C71.2695 25.7233 71.1429 26.1367 70.8895 26.43C69.5695 28.0433 68.3362 28.85 67.1895 28.85ZM79.8914 24.33C80.0647 24.33 80.1981 24.4167 80.2914 24.59C80.3981 24.75 80.4514 24.9567 80.4514 25.21C80.4514 25.5167 80.4047 25.7567 80.3114 25.93C80.2181 26.1033 80.0714 26.2567 79.8714 26.39C78.7247 27.1633 77.8847 27.7367 77.3514 28.11L76.0714 28.97C75.5647 31.73 74.8981 33.8967 74.0714 35.47C73.2581 37.0567 72.2181 37.85 70.9514 37.85C70.2714 37.85 69.7181 37.6367 69.2914 37.21C68.8647 36.7967 68.6514 36.25 68.6514 35.57C68.6514 34.6233 69.0247 33.6033 69.7714 32.51C70.5181 31.43 71.9181 30.0967 73.9714 28.51L74.0914 27.73C73.8647 28.09 73.5647 28.37 73.1914 28.57C72.8314 28.7567 72.4714 28.85 72.1114 28.85C71.2847 28.85 70.6247 28.55 70.1314 27.95C69.6381 27.35 69.3914 26.5633 69.3914 25.59C69.3914 24.5233 69.6381 23.5167 70.1314 22.57C70.6247 21.61 71.2781 20.8433 72.0914 20.27C72.9181 19.6833 73.7914 19.39 74.7114 19.39C75.0047 19.39 75.1981 19.45 75.2914 19.57C75.3981 19.6767 75.4847 19.8767 75.5514 20.17C75.8047 20.1167 76.0981 20.09 76.4314 20.09C76.7647 20.09 76.9981 20.1433 77.1314 20.25C77.2781 20.3433 77.3514 20.5367 77.3514 20.83C77.3514 20.99 77.3447 21.1167 77.3314 21.21C77.2781 21.6233 77.1114 22.67 76.8314 24.35C76.7781 24.67 76.7181 25.0233 76.6514 25.41C76.5981 25.7833 76.5381 26.1833 76.4714 26.61C77.4981 25.81 78.4847 25.1033 79.4314 24.49C79.6047 24.3833 79.7581 24.33 79.8914 24.33ZM72.8314 26.83C73.1381 26.83 73.4314 26.6433 73.7114 26.27C73.9914 25.8967 74.1914 25.3633 74.3114 24.67L74.9514 21.25C74.4047 21.2633 73.8981 21.4767 73.4314 21.89C72.9647 22.29 72.5914 22.8233 72.3114 23.49C72.0314 24.1567 71.8914 24.8633 71.8914 25.61C71.8914 26.0233 71.9714 26.33 72.1314 26.53C72.3047 26.73 72.5381 26.83 72.8314 26.83ZM71.1714 35.91C71.5047 35.91 71.8781 35.51 72.2914 34.71C72.7181 33.91 73.1247 32.6367 73.5114 30.89C72.4847 31.77 71.7447 32.5633 71.2914 33.27C70.8381 33.9767 70.6114 34.5967 70.6114 35.13C70.6114 35.3567 70.6514 35.5433 70.7314 35.69C70.8247 35.8367 70.9714 35.91 71.1714 35.91ZM80.4269 28.85C79.9202 28.85 79.5602 28.5833 79.3469 28.05C79.1469 27.5167 79.0469 26.6633 79.0469 25.49C79.0469 23.7567 79.2935 22.11 79.7869 20.55C79.9069 20.1633 80.1002 19.8833 80.3669 19.71C80.6469 19.5233 81.0335 19.43 81.5269 19.43C81.7935 19.43 81.9802 19.4633 82.0869 19.53C82.1935 19.5967 82.2469 19.7233 82.2469 19.91C82.2469 20.1233 82.1469 20.6033 81.9469 21.35C81.8135 21.8833 81.7069 22.35 81.6269 22.75C81.5469 23.15 81.4802 23.6433 81.4269 24.23C81.8669 23.0833 82.3602 22.15 82.9069 21.43C83.4535 20.71 83.9869 20.1967 84.5069 19.89C85.0402 19.5833 85.5269 19.43 85.9669 19.43C86.8335 19.43 87.2669 19.8633 87.2669 20.73C87.2669 21.25 87.1202 22.19 86.8269 23.55C86.5735 24.71 86.4469 25.4767 86.4469 25.85C86.4469 26.3833 86.6402 26.65 87.0269 26.65C87.2935 26.65 87.6069 26.49 87.9669 26.17C88.3402 25.8367 88.8335 25.3033 89.4469 24.57C89.6069 24.3833 89.7869 24.29 89.9869 24.29C90.1602 24.29 90.2935 24.37 90.3869 24.53C90.4935 24.69 90.5469 24.91 90.5469 25.19C90.5469 25.7233 90.4202 26.1367 90.1669 26.43C89.5935 27.1367 88.9735 27.7167 88.3069 28.17C87.6535 28.6233 86.9069 28.85 86.0669 28.85C85.3869 28.85 84.8735 28.6567 84.5269 28.27C84.1802 27.87 84.0069 27.2967 84.0069 26.55C84.0069 26.1767 84.1002 25.51 84.2869 24.55C84.4602 23.71 84.5469 23.13 84.5469 22.81C84.5469 22.5967 84.4735 22.49 84.3269 22.49C84.1535 22.49 83.9069 22.7167 83.5869 23.17C83.2802 23.61 82.9602 24.1967 82.6269 24.93C82.3069 25.6633 82.0469 26.4367 81.8469 27.25C81.7002 27.8767 81.5269 28.3033 81.3269 28.53C81.1402 28.7433 80.8402 28.85 80.4269 28.85ZM96.5088 24.29C96.6821 24.29 96.8154 24.37 96.9088 24.53C97.0154 24.69 97.0688 24.91 97.0688 25.19C97.0688 25.7233 96.9421 26.1367 96.6888 26.43C96.1154 27.1367 95.4888 27.7167 94.8088 28.17C94.1421 28.6233 93.3821 28.85 92.5288 28.85C91.3554 28.85 90.4821 28.3167 89.9088 27.25C89.3488 26.1833 89.0688 24.8033 89.0688 23.11C89.0688 21.4833 89.2754 19.63 89.6888 17.55C90.1154 15.47 90.7354 13.6833 91.5488 12.19C92.3754 10.6967 93.3554 9.95 94.4888 9.95C95.1288 9.95 95.6288 10.25 95.9888 10.85C96.3621 11.4367 96.5488 12.2833 96.5488 13.39C96.5488 14.9767 96.1088 16.8167 95.2288 18.91C94.3488 21.0033 93.1554 23.0767 91.6488 25.13C91.7421 25.6767 91.8954 26.07 92.1088 26.31C92.3221 26.5367 92.6021 26.65 92.9488 26.65C93.4954 26.65 93.9754 26.4967 94.3888 26.19C94.8021 25.87 95.3288 25.33 95.9688 24.57C96.1288 24.3833 96.3088 24.29 96.5088 24.29ZM94.0488 11.93C93.7421 11.93 93.3954 12.4833 93.0088 13.59C92.6221 14.6967 92.2821 16.07 91.9888 17.71C91.6954 19.35 91.5354 20.9233 91.5088 22.43C92.4554 20.87 93.2088 19.31 93.7688 17.75C94.3288 16.1767 94.6088 14.7433 94.6088 13.45C94.6088 12.4367 94.4221 11.93 94.0488 11.93ZM97.7169 28.85C96.8902 28.85 96.2302 28.55 95.7369 27.95C95.2435 27.35 94.9969 26.5633 94.9969 25.59C94.9969 24.5233 95.2435 23.5167 95.7369 22.57C96.2302 21.61 96.8835 20.8433 97.6969 20.27C98.5235 19.6833 99.3969 19.39 100.317 19.39C100.61 19.39 100.804 19.45 100.897 19.57C101.004 19.6767 101.09 19.8767 101.157 20.17C101.437 20.1167 101.73 20.09 102.037 20.09C102.69 20.09 103.017 20.3233 103.017 20.79C103.017 21.07 102.917 21.7367 102.717 22.79C102.41 24.3233 102.257 25.39 102.257 25.99C102.257 26.19 102.304 26.35 102.397 26.47C102.504 26.59 102.637 26.65 102.797 26.65C103.05 26.65 103.357 26.49 103.717 26.17C104.077 25.8367 104.564 25.3033 105.177 24.57C105.337 24.3833 105.517 24.29 105.717 24.29C105.89 24.29 106.024 24.37 106.117 24.53C106.224 24.69 106.277 24.91 106.277 25.19C106.277 25.7233 106.15 26.1367 105.897 26.43C105.35 27.11 104.77 27.6833 104.157 28.15C103.544 28.6167 102.95 28.85 102.377 28.85C101.937 28.85 101.53 28.7033 101.157 28.41C100.797 28.1033 100.524 27.69 100.337 27.17C99.6435 28.29 98.7702 28.85 97.7169 28.85ZM98.4369 26.83C98.7302 26.83 99.0102 26.6567 99.2769 26.31C99.5435 25.9633 99.7369 25.5033 99.8569 24.93L100.597 21.25C100.037 21.2633 99.5169 21.4767 99.0369 21.89C98.5702 22.29 98.1969 22.8233 97.9169 23.49C97.6369 24.1567 97.4969 24.8633 97.4969 25.61C97.4969 26.0233 97.5769 26.33 97.7369 26.53C97.9102 26.73 98.1435 26.83 98.4369 26.83ZM108.611 28.85C107.278 28.85 106.305 28.3367 105.691 27.31C105.091 26.2833 104.791 24.7967 104.791 22.85C104.791 21.13 105.005 19.2633 105.431 17.25C105.858 15.2233 106.478 13.5033 107.291 12.09C108.118 10.6633 109.098 9.95 110.231 9.95C110.845 9.95 111.338 10.2167 111.711 10.75C112.085 11.27 112.271 11.95 112.271 12.79C112.271 13.8833 112.065 14.97 111.651 16.05C111.238 17.13 110.551 18.2633 109.591 19.45C110.245 19.5033 110.811 19.7233 111.291 20.11C111.785 20.4967 112.158 20.9967 112.411 21.61C112.678 22.2233 112.811 22.89 112.811 23.61C112.811 24.61 112.611 25.51 112.211 26.31C111.825 27.11 111.311 27.7367 110.671 28.19C110.031 28.63 109.345 28.85 108.611 28.85ZM107.431 20.81C108.311 19.1967 109.011 17.7767 109.531 16.55C110.065 15.31 110.331 14.21 110.331 13.25C110.331 12.8233 110.278 12.4967 110.171 12.27C110.078 12.0433 109.945 11.93 109.771 11.93C109.505 11.93 109.211 12.33 108.891 13.13C108.585 13.9167 108.298 14.99 108.031 16.35C107.765 17.71 107.565 19.1967 107.431 20.81ZM108.691 26.69C109.145 26.69 109.525 26.4433 109.831 25.95C110.151 25.4567 110.311 24.7367 110.311 23.79C110.311 23.0567 110.178 22.5033 109.911 22.13C109.645 21.7567 109.325 21.57 108.951 21.57C108.485 21.57 108.091 21.81 107.771 22.29C107.451 22.77 107.291 23.47 107.291 24.39C107.291 25.19 107.425 25.7767 107.691 26.15C107.958 26.51 108.291 26.69 108.691 26.69Z" fill="white"/>
</g>
<defs>
<clipPath id="clip0_3_6">
<rect width="114" height="40.5" fill="white"/>
</clipPath>
</defs>
</svg>
